<?xml version="1.0" encoding="UTF-8"?>
<svg width="1200pt" height="1200pt" version="1.1" viewBox="0 0 1200 1200" xmlns="http://www.w3.org/2000/svg">
 <path d="m228.46 193.43c0.023437-30.012 9.1211-80.355 69.758-80.355h596.15c20.965 0 36.562 5.4102 47.68 16.535 21.48 21.492 22.078 59.613 22.078 63.887 0 0.78516-0.015625 1.2031-0.015625 1.2109l-0.019531 0.53516c-0.003906 0.1875-0.003906 0.72656-0.003906 0.72656v394.15c0 175.16-311.04 476.08-362.27 491.37 0.015626-0.003906 1.5547-0.45703 4.1719-0.45703h-23.293c2.6406 0 4.1992 0.46094 4.2188 0.46484-50.691-15.289-358.42-316.23-358.42-491.38l0.003906-394.15v-0.76953l-0.03125-0.76953c0.003906 0.18359-0.011718-0.24609-0.011718-1zm-69.23-0.027344c0 2.1953 0.050781 3.6055 0.074219 4.1133l-0.03125-1.543v394.15c0 125.51 115.11 279.22 183.73 359.67 43.559 51.074 91.469 100.01 134.91 137.78 72.094 62.691 94.176 62.691 104.79 62.691h23.293c10.594 0 32.629 0 105.28-62.59 43.883-37.801 92.266-86.719 136.25-137.75 69.387-80.492 185.8-234.29 185.8-359.81v-394.15l-0.03125 1.4414c0.023437-0.48047 0.070313-1.8125 0.070313-3.8906 0.007812-16.508-3.0195-73.5-42.348-112.85-24.426-24.434-56.941-36.824-96.645-36.824h-596.16c-95.93-0.003906-138.93 75.098-138.99 149.55z"/>
 <path d="m374.75 473.49 153.3 153.3 24.477 24.469 24.473-24.469 243.63-243.63-48.957-48.953-243.62 243.63h48.949l-153.29-153.3z"/>
</svg>
