<?xml version="1.0" encoding="UTF-8"?>
<svg width="1200pt" height="1200pt" version="1.1" viewBox="0 0 1200 1200" xmlns="http://www.w3.org/2000/svg">
 <path d="m1082.2 351.61c-31.922-69.141-78-131.76-135.61-181.22-14.062-12.703-29.531-23.859-44.766-35.156l-23.859-15.609-3-1.9219-2.2969-1.4531c-2.0625-1.0781-4.0781-2.2969-6.2344-3.1406-8.625-3.8438-18.234-5.3906-27.469-4.7812-18.375 1.2188-35.297 10.781-45.609 26.062-2.5312 3.7031-4.6875 7.7812-6.375 12l-1.3125 3.6094-2.2969 6.1406-4.4531 12.234-9 24.375-18 48.844-36 97.547-9 24.375-4.5469 12.234-2.625 7.3125c-0.9375 2.8594-1.7812 5.7656-2.625 8.625-6.4688 23.297-7.3125 48.234-2.3906 72 2.5312 11.859 6.375 23.531 11.625 34.547l6.4688 12.469c1.4531 2.8594 2.7656 5.8594 4.0781 8.7656 4.9219 11.859 8.1562 24.609 9.375 37.547 2.3906 26.156-3.1406 52.219-16.078 74.859-12.938 22.688-32.859 41.531-56.156 53.297-11.625 5.7656-24.141 9.6094-36.844 11.531-6.2344 1.4531-13.078 0.84375-19.547 1.5469-6.4688-0.70312-13.219-0.14062-19.547-1.6875-26.859-3.8438-52.547-16.688-71.766-36-9.8438-9.4688-18-20.625-24.141-32.766-6.375-12-10.781-25.078-12.703-38.531-4.7812-27-0.375-55.219 12-79.453 0.9375-1.9219 4.6875-8.7656 7.0781-14.156 2.5312-5.625 4.6875-11.531 6.6094-17.531 3.7031-11.859 6-24.375 6.6094-36.844 0.70312-12.469 0-25.219-2.3906-37.547-2.0625-12-7.3125-25.922-9.9375-32.859l-76.312-203.76-4.7812-12.703-2.3906-6.375c-2.625-7.4531-8.1562-16.078-14.766-21.938-13.312-12.375-32.156-18-50.859-13.922-8.625 1.3125-20.156 8.5312-19.547 8.3906l-6.2344 4.0781c-16.688 10.547-32.531 22.312-48.141 34.453-30.703 24.703-58.453 53.156-82.781 84.141-48.609 62.062-84 134.86-100.31 212.29-16.781 77.156-16.219 157.78 2.2969 234.71 36.375 153.84 145.08 288.94 288.94 354.84 46.453 23.156 109.31 42.609 161.63 46.078 13.078 0.60938 25.453 0.70312 36.609 0.375 11.156-1.0781 21.141-3.4688 29.391-6 16.688-5.2969 26.625-12.938 27.469-24 0.84375-11.859-7.7812-19.922-21.703-25.219-7.0781-2.625-15.469-4.6875-24.938-6-9.4688-1.4531-19.922-4.2188-31.078-5.7656-22.453-2.3906-47.156-8.3906-71.766-13.312-12.141-3.4688-24.141-6.9375-35.625-10.312-11.625-3.375-21.938-8.625-31.922-12.703-61.312-27.469-116.53-68.391-160.69-119.06-43.688-51-76.078-111.47-94.078-176.06l-6.4688-24.234c-2.2969-8.0625-2.8594-16.547-4.3125-24.703l-3.9375-24.844c-0.84375-8.2969-0.9375-16.781-1.4531-25.078-3.2344-33.469 0-67.219 5.0625-100.22 10.453-66.234 36.609-129.71 74.625-184.78 19.078-27.609 40.922-53.297 65.625-75.938 12.469-11.156 25.078-22.219 38.766-32.062 6.6094-5.1562 13.547-9.9375 20.625-14.391h0.14062l8.3906 22.219 18.703 49.781 37.453 99.609 18.234 48.703c4.3125 12.844 5.1562 26.625 2.8594 40.078-1.0781 6.7031-3 13.312-5.7656 19.547-1.5469 3.4688-2.5312 5.3906-4.9219 10.078-2.3906 4.5469-4.5469 9.1406-6.6094 13.781-8.0625 18.844-13.078 38.859-15 59.156s-0.23438 40.781 3.6094 60.844c4.6875 19.922 11.766 39.234 21.938 56.859 10.453 17.531 23.062 33.703 38.062 47.531 15.234 13.547 32.156 25.219 50.625 33.844 37.219 17.156 79.312 22.547 119.53 15.234 40.453-7.3125 78-27.703 106.45-56.766 28.547-29.062 48.141-67.219 54.609-107.77 6.7031-40.312 0.375-82.781-17.766-119.77l-5.8594-11.531c-1.3125-3-2.625-6.1406-3.6094-9.2344-2.0625-6.2344-3.375-12.844-3.8438-19.453s-0.14062-13.312 0.9375-19.922c0.60938-3.2344 1.3125-6.4688 2.2969-9.7031 0.9375-3.2344 2.0625-6 3.7031-10.547l38.062-99.375 38.156-99.234 3.4688-9 3.9375 2.7656c7.0781 4.4531 13.219 10.078 19.922 15 105.38 81.703 169.08 211.92 170.06 343.08 1.3125 65.766-13.219 130.55-40.078 189.47-26.531 59.156-68.062 110.86-116.77 152.16-10.781 10.312-24.469 18.469-37.219 28.312-13.453 8.8594-27.469 17.531-41.625 25.688-14.625 7.3125-28.688 15.938-43.453 21.844-7.2188 3.375-14.297 6.7031-21.141 9.9375-7.0781 2.8594-14.062 5.625-20.766 8.2969-53.391 22.219-96.844 36.844-93.234 67.453 2.5312 23.625 53.766 33.469 119.62 18.609 8.1562-2.0625 16.547-4.0781 25.078-6.1406 8.2969-3 16.781-6.1406 25.312-9.1406 17.391-5.8594 34.078-14.531 50.859-23.156 17.062-8.1562 32.156-19.547 47.766-29.062 14.859-10.688 28.781-21.703 42-32.156 57.938-49.453 105.61-111 138.61-179.86 33.234-68.859 49.219-145.69 50.297-221.63 0.70312-76.219-15.703-152.39-46.922-222z"/>
</svg>
