<?xml version="1.0" encoding="UTF-8"?>
<svg width="1200pt" height="1200pt" version="1.1" viewBox="0 0 1200 1200" xmlns="http://www.w3.org/2000/svg">
 <path d="m286.8 123.6c-141.6 0-256.8 115.2-256.8 256.8 0 141.6 115.2 256.8 256.8 256.8 141.6 0 256.8-115.2 256.8-256.8 0-141.6-115.2-256.8-256.8-256.8zm0 451.2c-106.8 0-193.2-86.398-193.2-193.2 0-106.8 86.398-194.4 193.2-194.4s193.2 86.398 193.2 193.2c0 106.8-86.398 194.4-193.2 194.4z"/>
 <path d="m346.8 308.4-91.199 91.199-34.801-34.801c-12-12-32.398-12-44.398 0s-12 32.398 0 44.398l56.398 56.398c6 6 14.398 9.6016 22.801 9.6016 8.3984 0 16.801-3.6016 22.801-9.6016l114-114c12-12 12-32.398 0-44.398-13.203-11.996-33.602-11.996-45.602 1.2031z"/>
 <path d="m913.2 637.2c141.6 0 256.8-115.2 256.8-256.8 0-141.6-115.2-256.8-256.8-256.8-141.6 0-256.8 115.2-256.8 256.8 0 141.6 115.2 256.8 256.8 256.8zm0-450c106.8 0 193.2 86.398 193.2 193.2 0 106.8-86.398 194.4-193.2 194.4s-193.2-86.398-193.2-193.2c0-106.8 86.398-194.4 193.2-194.4z"/>
 <path d="m829.2 464.4c6 6 14.398 9.6016 22.801 9.6016 8.3984 0 16.801-3.6016 22.801-9.6016l39.602-39.602 39.602 39.602c6 6 14.398 9.6016 22.801 9.6016 8.3984 0 16.801-3.6016 22.801-9.6016 12-12 12-32.398 0-44.398l-39.602-39.602 39.602-39.602c12-12 12-32.398 0-44.398s-32.398-12-44.398 0l-42.008 39.602-39.602-39.602c-12-12-32.398-12-44.398 0s-12 32.398 0 44.398l39.602 39.602-39.602 39.602c-12 12-12 32.398 0 44.398z"/>
 <path d="m1118.4 721.2h-410.4c-18 0-31.199 14.398-31.199 31.199 0 18 14.398 31.199 31.199 31.199h410.4c18 0 31.199-14.398 31.199-31.199 0.003906-16.797-14.398-31.199-31.199-31.199z"/>
 <path d="m1118.4 867.6h-410.4c-18 0-31.199 14.398-31.199 31.199s14.398 31.199 31.199 31.199h410.4c18 0 31.199-14.398 31.199-31.199 0.003906-16.801-14.398-31.199-31.199-31.199z"/>
 <path d="m1118.4 1012.8h-410.4c-18 0-31.199 14.398-31.199 31.199s14.398 31.199 31.199 31.199h410.4c18 0 31.199-14.398 31.199-31.199 0.003906-16.801-14.398-31.199-31.199-31.199z"/>
 <path d="m492 721.2h-410.4c-18 0-31.199 14.398-31.199 31.199 0 18 14.398 31.199 31.199 31.199l410.4 0.003906c18 0 31.199-14.398 31.199-31.199 0-16.801-13.199-31.203-31.199-31.203z"/>
 <path d="m492 867.6h-410.4c-18 0-31.199 14.398-31.199 31.199s14.398 31.199 31.199 31.199h410.4c18 0 31.199-14.398 31.199-31.199s-13.199-31.199-31.199-31.199z"/>
 <path d="m492 1012.8h-410.4c-18 0-31.199 14.398-31.199 31.199s14.398 31.199 31.199 31.199h410.4c18 0 31.199-14.398 31.199-31.199s-13.199-31.199-31.199-31.199z"/>
</svg>
