<?xml version="1.0" encoding="UTF-8"?>
<svg viewBox="0 0 1200 1200" xmlns="http://www.w3.org/2000/svg">
<path d="m286.8 123.6c-141.6 0-256.8 115.2-256.8 256.8s115.2 256.8 256.8 256.8 256.8-115.2 256.8-256.8-115.2-256.8-256.8-256.8zm0 451.2c-106.8 0-193.2-86.4-193.2-193.2s86.4-194.4 193.2-194.4 193.2 86.4 193.2 193.2-86.4 194.4-193.2 194.4z"/>
<path d="m346.8 308.4-91.2 91.2-34.8-34.8c-12-12-32.4-12-44.4 0s-12 32.4 0 44.4l56.4 56.4c6 6 14.4 9.6 22.8 9.6s16.8-3.6 22.8-9.6l114-114c12-12 12-32.4 0-44.4-13.2-12-33.6-12-45.6 1.2zm566.4 328.8c141.6 0 256.8-115.2 256.8-256.8s-115.2-256.8-256.8-256.8-256.8 115.2-256.8 256.8 115.2 256.8 256.8 256.8zm0-450c106.8 0 193.2 86.4 193.2 193.2s-86.4 194.4-193.2 194.4-193.2-86.4-193.2-193.2 86.4-194.4 193.2-194.4z"/>
<path d="m829.2 464.4c6 6 14.4 9.6 22.8 9.6s16.8-3.6 22.8-9.6l39.6-39.6 39.6 39.6c6 6 14.4 9.6 22.8 9.6s16.8-3.6 22.8-9.6c12-12 12-32.4 0-44.4l-39.6-39.6 39.6-39.6c12-12 12-32.4 0-44.4s-32.39-12-44.39 0l-42 39.6-39.61-39.6c-12-12-32.4-12-44.4 0s-12 32.4 0 44.4l39.6 39.6-39.6 39.6c-12 12-12 32.4 0 44.4zm289.2 256.8h-410.4c-18 0-31.2 14.4-31.2 31.2 0 18 14.4 31.2 31.2 31.2h410.4c18 0 31.2-14.4 31.2-31.2s-14.4-31.2-31.2-31.2zm0 146.4h-410.4c-18 0-31.2 14.4-31.2 31.2s14.4 31.2 31.2 31.2h410.4c18 0 31.2-14.4 31.2-31.2s-14.4-31.2-31.2-31.2zm0 145.2h-410.4c-18 0-31.2 14.4-31.2 31.2s14.4 31.2 31.2 31.2h410.4c18 0 31.2-14.4 31.2-31.2s-14.4-31.2-31.2-31.2zm-626.4-291.6h-410.4c-18 0-31.2 14.4-31.2 31.2 0 18 14.4 31.2 31.2 31.2h410.4c18 0 31.2-14.4 31.2-31.2s-13.2-31.2-31.2-31.2zm0 146.4h-410.4c-18 0-31.2 14.4-31.2 31.2s14.4 31.2 31.2 31.2h410.4c18 0 31.2-14.4 31.2-31.2s-13.2-31.2-31.2-31.2zm0 145.2h-410.4c-18 0-31.2 14.4-31.2 31.2s14.4 31.2 31.2 31.2h410.4c18 0 31.2-14.4 31.2-31.2s-13.2-31.2-31.2-31.2z"/>
</svg>
