<?xml version="1.0" encoding="UTF-8"?>
<svg width="1200pt" height="1200pt" version="1.1" viewBox="0 0 1200 1200" xmlns="http://www.w3.org/2000/svg">
 <path d="m593.19 290.1c58.027 0 109.63 12.109 154.82 36.328 45.023 24.055 79.727 59.895 104.11 107.52 24.383 47.461 36.57 103.38 36.57 167.74 0 98.5-26.82 175.54-80.457 231.13-53.637 55.59-123.37 83.383-209.19 83.383-67.777 0-125.4-18.125-172.86-54.371-47.625-36.41-78.75-85.09-93.379-146.04l89.965-26.332c10.727 43.398 32.672 77.773 65.828 103.13 33.156 25.355 71.68 38.035 115.57 38.035 54.613 0 99.148-19.098 133.61-57.297 34.297-38.359 51.445-94.84 51.445-169.45s-18.125-131.9-54.371-171.89c-36.41-39.984-82.652-59.977-138.73-59.977-38.523 0-72.004 9.6719-100.45 29.012-28.605 19.18-50.227 46.812-64.852 82.895l-87.039-21.211c15.605-53.148 44.859-95.168 87.77-126.05 42.91-31.047 96.793-46.566 161.64-46.566zm6.582-150.68c-77.043 0-152.38 19.91-226.01 59.734-73.629 39.66-131.01 96.469-172.13 170.42-41.285 73.793-61.926 150.68-61.926 230.64 0 79.48 20.234 155.71 60.707 228.69 40.473 72.816 97.281 129.62 170.42 170.42 73.145 40.637 149.45 60.953 228.94 60.953 79.48 0 155.79-20.316 228.94-60.953 73.145-40.797 130.11-97.605 170.91-170.42 40.637-72.98 60.953-149.21 60.953-228.69 0-79.969-20.723-156.85-62.172-230.64-41.449-73.957-98.824-130.76-172.13-170.42-73.469-39.82-148.97-59.734-226.5-59.734zm0-91.43c92.648 0 183.1 23.812 271.36 71.438 88.258 47.461 157.18 115.48 206.75 204.07 49.41 88.422 74.117 180.66 74.117 276.72 0 95.086-24.383 186.52-73.145 274.29-48.762 87.77-116.87 155.96-204.31 204.55-87.609 48.438-179.2 72.656-274.77 72.656s-187.08-24.219-274.53-72.656c-87.609-48.598-155.63-116.79-204.07-204.55-48.598-87.77-72.898-179.2-72.898-274.29 0-96.062 24.625-188.3 73.875-276.72 49.25-88.582 118-156.61 206.26-204.07 88.258-47.625 178.71-71.438 271.36-71.438z" fill-rule="evenodd"/>
</svg>
