<?xml version="1.0" encoding="UTF-8"?>
<svg width="1200pt" height="1200pt" version="1.1" viewBox="0 0 1200 1200" xmlns="http://www.w3.org/2000/svg">
 <path d="m594 360c60 0 120 24 162 72l84-84c-66-72-156-108-246-108-96 0-180 36-252 108-138 138-138 366 0 510 66 66 156 102 252 102s180-36 252-108l-84-84c-90 90-240 90-324 0-90-96-90-246 0-342 36-42 90-66 156-66z"/>
 <path d="m600 0c-330 0-600 270-600 600s270 600 600 600 600-270 600-600-270-600-600-600zm0 1080c-264 0-480-216-480-480s216-480 480-480 480 216 480 480-216 480-480 480z"/>
</svg>
