<svg xmlns="http://www.w3.org/2000/svg" version="1.0" width="197" height="197"><path d="M98 0C43.904 0 0 43.904 0 98s43.904 98 98 98 98-43.904 98-98S152.096 0 98 0zm0 20c43.056 0 78 34.944 78 78s-34.944 78-78 78-78-34.944-78-78 34.944-78 78-78z"/><path d="M97.281 43c-26.063 0-47.9 18.153-53.562 42.5H70C74.742 75.173 85.18 68 97.281 68c16.56 0 30 13.44 30 30 0 16.56-13.44 30-30 30-12.101 0-22.54-7.173-27.281-17.5H43.719c5.662 24.347 27.5 42.5 53.562 42.5 30.36 0 55-24.64 55-55s-24.64-55-55-55z"/></svg>