<?xml version="1.0" encoding="UTF-8"?>
<svg width="1200pt" height="1200pt" version="1.1" viewBox="0 0 1200 1200" xmlns="http://www.w3.org/2000/svg">
 <path d="m338.88 704.12c5.4492-1.8711 25.379-1.8477-2.2578-30.938 37.465 41.461 115.07-50.027 12.562-79.031-27.613-7.8125-104.18-4.9922-93.254 44.578 2.1836 5.1719 25.801 26.93 26.543 24.793-30.602-4.5352-10.188 40.344 21.047 44.34 6.043 0.79297 29.602-1.7617 35.359-3.7422zm1.7422 57.73c-54.938-38.484-110.17 12.336-53.27 33.406 40.344 14.914 45.191 7.7266 81.77 13.523 24.469 3.8984 165.39 11.438 167.8-32.375-5.832 0.52734-0.63672 11.594 0 0-43.414 3.9375-88.273 13.164-107.2 16.801-14.051 2.6992-28.645-11.879-46.105-17.902zm247.58-283.74c38.195-2.1953 70.199 46.559 70.199 46.559s-32.004 51.277-66.926 50.195c-34.922-1.0938-33.336-13.43-57.84-19.273-24.355-5.8281 16.371-75.297 54.566-77.48zm-10.859 24.43c5.1836-6.7578 19.402 20.293 21.516 2.1367 0.73047-6.1914-1.4531-9.0977-25.094-8.7461-23.641 0.37109-34.188 51.516-19.273 60.023 11.496 6.5625 19.848 17.785 16.211 3.2891-3.0664-12.109-0.98047-46.801 6.6406-56.703zm-234.75-66.84c29.102 0 38.543 18.91 39.277 29.461 0.73047 10.559-18.191 52.02-37.105 52.02-8.8789 0-32.531-12.383-34.922-31.465-2.6758-21.516 17.305-50.016 32.75-50.016zm-4.0234 12.77c5.4492-7.7891-20.879 5.5547-19.031 29.566 1.8477 24 26.363 34.766 20.988 27.445-19.836-27.012-5.1836-61.848-10.535-51.863 5.3633 4.043 16.645-4.6914 3.9258-6.793-0.81641-0.14453 4.1758 2.3398 4.6523 1.6445zm30.781 6.6484c-2.9141 0-5.2695 2.5195-5.2695 5.6406s2.3633 5.6406 5.2695 5.6406c2.9023 0 5.2695-2.5195 5.2695-5.6406s-2.3516-5.6406-5.2695-5.6406zm54.613-344.12c15.684 0 37.801 20.09 65.734 59.699 20.34 28.836 39.023 61.777 41.652 73.414 1.4531 6.4688 13.668 20.184 19.512 21.91 0.070313 0 0.52734 0.058593 1.5 0.058593 1.7773 0 4.2617-0.17969 7.1406-0.37109 4.5-0.3125 10.094-0.71875 16.621-0.71875 23.125 0 44.977 5.6055 66.098 11.016 20.051 5.1367 39 9.9961 58.02 9.9961h0.011719c1.8477 0 3.6953-0.058594 5.4961-0.14453 2.7734-0.15625 11.23-4.1992 15.59-7.4766 13.824-10.367 34.766-33.109 56.93-57.18 46.801-50.82 76.645-81.695 96.336-81.695 5.7109 0 10.621 2.543 13.824 7.1641 10.441 15.023 14.664 26.051 16.738 43.703 0.22656 1.9336 0.50391 4.0781 0.81641 6.457 3.707 28.656 11.398 88.031-15.227 167.09 1.3086 10.262 5.4961 33.359 12.684 42.648 50.16 64.727 82.57 164.98 82.57 255.43 0 106.09-42.672 205.82-120.16 280.81-77.398 74.914-180.3 116.18-289.73 116.18-109.44 0-212.33-41.258-289.74-116.18-77.484-74.988-120.16-174.73-120.16-280.81 0-74.484 20.113-146.21 58.141-207.39 4.8242-7.7539 8.0898-16.488 11.543-25.727 5.0625-13.535 10.309-27.516 20.891-38.93 11.375-12.266 27.602-20.82 43.297-29.113 9.8164-5.1836 19.078-10.066 26.773-15.602 20.723-14.891 43.152-27.949 66.672-38.797 5.1484-6.0703 3.3711-43.379 2.1953-68.148-2.3867-50.352-4.8711-102.42 15.422-122.15 3.4844-3.3555 7.9102-5.1445 12.797-5.1445m0-60c-20.543 0-39.938 7.8594-54.625 22.152-39.66 38.555-36.527 104.33-33.516 167.95 0.30078 6.2891 0.80469 16.922 1.0664 26.879-15.613 8.6758-30.672 18.227-45.023 28.547-4.3086 3.0977-11.762 7.0312-19.656 11.195-18.422 9.7305-41.102 21.695-59.398 41.438-18.625 20.102-26.977 42.395-33.07 58.691-2.3281 6.2031-4.6562 12.422-6.2891 15.047-43.98 70.754-67.211 153.42-67.211 239.11 0 122.5 49.164 237.54 138.42 323.93 88.668 85.801 206.38 133.07 331.48 133.07 125.09 0 242.8-47.258 331.46-133.07 89.258-86.387 138.42-201.43 138.42-323.93 0-102.73-35.23-212.66-92.184-288.3-0.45703-1.4766-0.96094-3.4219-1.4531-5.6289 25.285-84.875 16.836-150.16 13.105-178.93-0.30078-2.3164-0.52734-4.0547-0.70703-5.6172-3.2383-27.516-11.074-48.059-27.07-71.074-14.305-20.617-37.906-32.93-63.109-32.93-47.41 0-84.434 40.199-140.47 101.05-14.52 15.758-31.98 34.727-42.91 44.797-9.7422-1.2461-21.203-4.1875-33.961-7.4414-22.691-5.8086-48.07-12.324-77.027-12.898-13.645-28.789-36-61.105-41.508-68.914-29.676-42.094-66.527-85.125-114.77-85.125z"/>
</svg>
