<?xml version="1.0" encoding="UTF-8"?>
<svg width="1200pt" height="1200pt" version="1.1" viewBox="0 0 1200 1200" xmlns="http://www.w3.org/2000/svg">
 <path d="m600 28.688c315.53 0 571.31 255.79 571.31 571.31s-255.79 571.31-571.31 571.31-571.31-255.79-571.31-571.31 255.79-571.31 571.31-571.31zm0 142.51c236.82 0 428.8 191.98 428.8 428.8 0 78.207-20.934 151.51-57.516 214.62l-585.91-585.91c63.113-36.582 136.42-57.516 214.62-57.516zm214.62 800.09c-63.113 36.582-136.43 57.516-214.62 57.516-236.82 0-428.8-191.98-428.8-428.8 0-78.195 20.934-151.51 57.516-214.62z" fill-rule="evenodd"/>
</svg>
