<?xml version="1.0" encoding="UTF-8"?>
<svg width="1200pt" height="1200pt" version="1.1" viewBox="0 0 1200 1200" xml:space="preserve" xmlns="http://www.w3.org/2000/svg"><path d="m641.62 538.94 86.12 54.179c10.569 6.6474 27.706 6.6474 38.275 0l86.114-54.179c10.569-6.647 10.569-17.428 0-24.078-10.571-6.6492-27.706-6.6492-38.276 0l-39.917 25.112v-142.41c0-9.4034-12.117-17.026-27.064-17.026s-27.064 7.6227-27.064 17.026v142.41l-39.917-25.112c-10.566-6.6492-27.703-6.6488-38.273 0-10.569 6.6488-10.569 17.43 0 24.078zm-266.68 31.631h37.995c3.2477-4.9039 7.4709-11.135 12.667-18.695 5.5203-7.5587 11.367-15.731 17.538-24.517 6.1684-8.7841 12.664-17.774 19.486-26.968 7.1441-9.3979 13.803-18.184 19.971-26.357 6.1713-8.3764 11.855-15.834 17.05-22.371 5.5232-6.5389 9.9068-11.544 13.154-15.016 3.5716 24.109 6.495 50.262 8.7672 78.456 2.2751 27.995 4.2231 56.29 5.847 84.894h46.279c-5.5203-73.144-13.803-143.94-24.845-212.38h-41.408c-8.7672 8.9884-18.185 19.614-28.253 31.872s-20.138 25.13-30.205 38.616c-10.067 13.28-19.81 26.662-29.229 40.146-9.4182 13.28-18.022 25.438-25.817 36.471-7.7944-11.033-16.401-23.191-25.82-36.471-9.4161-13.484-19.159-26.866-29.229-40.146-10.068-13.486-20.135-26.357-30.202-38.616s-19.486-22.884-28.256-31.872h-41.408c-2.9209 15.322-5.6836 31.564-8.2801 48.726-2.275 17.161-4.5473 34.833-6.8195 53.017-1.9508 17.98-3.7354 36.369-5.3592 55.164-1.6238 18.594-3.0869 37.085-4.3838 55.473h46.279c1.6238-28.604 3.5719-56.902 5.8441-84.894 2.2748-28.195 5.1955-54.348 8.7701-78.456 3.2477 3.4724 7.468 8.4776 12.664 15.016 5.5232 6.5371 11.367 13.995 17.538 22.371 6.1713 8.1725 12.666 16.959 19.486 26.357 7.147 9.1941 13.803 18.184 19.974 26.968 6.1713 8.7864 11.855 16.959 17.05 24.517 5.5203 7.5609 9.9068 13.791 13.154 18.695z" fill-rule="evenodd" stroke-width=".57243"/><path d="m249.44 706.32h56.25v168.74c0 10.359 8.3906 18.75 18.75 18.75 10.359 0 18.75-8.3906 18.75-18.75v-168.74h56.25c10.359 0 18.75-8.3906 18.75-18.75s-8.3906-18.75-18.75-18.75h-150c-10.359 0-18.75 8.3906-18.75 18.75s8.3906 18.75 18.75 18.75zm215.26 184.87c2.9531 1.7812 6.3281 2.7188 9.75 2.625 6.5625-0.0937 12.609-3.4688 16.125-9l40.125-66 40.125 67.125c3.5156 5.5312 9.5625 8.9062 16.125 9 3.4219 0.0937 6.7969-0.84375 9.75-2.625 8.7656-5.4844 11.578-16.969 6.375-25.875l-50.625-85.125 50.625-84c5.3906-8.9062 2.5312-20.484-6.375-25.875s-20.484-2.5312-25.875 6.375l-40.125 66-40.125-67.125c-5.3906-8.9062-16.969-11.766-25.875-6.375s-11.766 16.969-6.375 25.875l50.625 85.125-50.625 84c-5.2031 8.9062-2.3906 20.391 6.375 25.875zm197.26-184.87h56.25v168.74c0 10.359 8.3906 18.75 18.75 18.75 10.359 0 18.75-8.3906 18.75-18.75v-168.74h56.25c10.359 0 18.75-8.3906 18.75-18.75s-8.3906-18.75-18.75-18.75h-150c-10.359 0-18.75 8.3906-18.75 18.75s8.3906 18.75 18.75 18.75z"/><path d="m338.25 70.557c6.9375-6.75 15.516-10.547 25.453-10.547h467.53c61.312 0 112.45 46.594 118.92 106.78 80.531 0 139.22 58.547 139.22 133.4v706.4c0 73.453-59.953 133.4-133.4 133.4h-567.47c-74.578 0-133.4-58.781-133.4-138.56-42.797 0-75.328-0.2344-110.25-35.156l-0.0937 0.0937c-21.656-21.656-35.062-51.562-35.062-84.516v-567.84l5.6719-19.406zm612.56 168.24v643.08c0 32.906-13.453 62.766-35.156 84.422l0.0937 0.0937c-21.656 21.656-51.562 35.109-84.516 35.109l-504.1-0.047c0 39.281 25.875 66.562 61.406 66.562h567.47c33.703 0 61.406-27.703 61.406-61.406l-0.047-706.4c0-35.531-27.234-61.406-66.562-61.406zm-769.13 111.23v531.84c0 13.078 5.3438 24.984 13.969 33.609l-0.0937 0.0937c8.625 8.5781 20.531 13.922 33.703 13.922h601.92c13.078 0 24.984-5.3438 33.609-13.969l0.0937 0.0937c8.5781-8.625 13.922-20.531 13.922-33.703v-702.28c0-26.156-21.422-47.625-47.578-47.625h-431.53v182.02c0 19.875-16.125 36-36 36zm146.02-72v-95.109l-95.109 95.109z" fill-rule="evenodd"/></svg>
