<?xml version="1.0" encoding="UTF-8"?>
<svg class="hlticon" viewBox="0 0 1200 1200" xmlns="http://www.w3.org/2000/svg">
<path d="m478.8 674.4-92.4-129.6c-22.8-31.2-24-75.6-2.4-108 2.4-3.6 28.8-42 81.6-80.4-198 88.8-414 256.8-432 285.6-30 48 138 67.2 168 230.4 25.2 142.8 216 211.2 244.8 142.8 27.6-67.2 60-129.6 94.8-184.8l9.6-116.4c-30-2.4-55.2-16.8-72-39.6z"/>
<path d="M1117.2 319.2H720c-204 0-297.6 135.6-301.2 141.6-12 18-12 42 1.2 60l92.4 129.6c10.8 14.4 26.4 21.6 43.2 21.6 10.8 0 21.6-3.6 30-9.6l7.2-7.2v37.2l-32.4 391.2c-2.4 32.4 21.6 60 54 63.6 32.4 2.4 60-21.6 63.6-54l31.2-375.6H732l31.2 374.4c2.4 30 27.6 54 58.8 54h4.8c32.4-2.4 56.4-31.2 54-63.6l-32.4-391.2-2.4-267.6h272.4c28.8 0 52.8-24 52.8-52.8-1.2-28.8-25.2-51.6-54-51.6zM594 583.2l-63.6-88.8c14.4-13.2 36-28.8 64.8-43.2zM837.6 170.4c0 64.95-52.65 117.6-117.6 117.6s-117.6-52.65-117.6-117.6c0-64.94 52.65-117.6 117.6-117.6s117.6 52.65 117.6 117.6"/>
</svg>
