<?xml version="1.0" encoding="UTF-8"?>
<svg width="1200pt" height="1200pt" version="1.1" viewBox="0 0 1200 1200" xmlns="http://www.w3.org/2000/svg">
 <path d="m478.8 674.4-92.398-129.6c-22.801-31.199-24-75.602-2.3984-108 2.3984-3.6016 28.801-42 81.602-80.398-198 88.801-414 256.8-432 285.6-30 48 138 67.199 168 230.4 25.199 142.8 216 211.2 244.8 142.8 27.602-67.199 60-129.6 94.801-184.8l9.6016-116.4c-30.008-2.3984-55.207-16.801-72.008-39.602z"/>
 <path d="m1117.2 319.2h-397.2c-204 0-297.6 135.6-301.2 141.6-12 18-12 42 1.1992 60l92.398 129.6c10.801 14.398 26.398 21.602 43.199 21.602 10.801 0 21.602-3.6016 30-9.6016l7.1992-7.1992v37.199l-32.398 391.2c-2.3984 32.398 21.602 60 54 63.602 32.398 2.3984 60-21.602 63.602-54l31.199-375.6h22.801l31.199 374.4c2.3984 30 27.602 54 58.801 54h4.8008c32.398-2.3984 56.398-31.199 54-63.602l-32.398-391.2-2.3984-267.6h272.4c28.801 0 52.801-24 52.801-52.801-1.2031-28.797-25.203-51.598-54.004-51.598zm-523.2 264-63.602-88.801c14.398-13.199 36-28.801 64.801-43.199z"/>
 <path d="m837.6 170.4c0 64.949-52.652 117.6-117.6 117.6s-117.6-52.652-117.6-117.6c0-64.945 52.652-117.6 117.6-117.6s117.6 52.652 117.6 117.6"/>
</svg>
