<svg viewBox="0 0 1200 1200" xmlns="http://www.w3.org/2000/svg" height="NaN" width="24">
<path d="M793.87 450h68.63v-75h-75V226.5l56.9 31.36 36.19-65.72-280.6-154.55-280.6 154.55 36.19 65.72 56.9-31.36V375h-75v75h68.63l-100.7 637.5h-80.43v75h750v-75h-80.44zM487.5 185.21 600 123.24l112.5 61.97V375h-225zM482.06 450h235.92l100.64 637.5H712.5v-150c0-62.1-50.39-112.5-112.5-112.5s-112.5 50.4-112.5 112.5v150H381.38zm155.44 637.5h-75v-150c0-20.72 16.78-37.5 37.5-37.5s37.5 16.78 37.5 37.5zm373.03-866.44-33.56-67.08 150-75 33.56 67.08zm0 157.92 150 75-33.56 67.08-150-75zm-937.5-300 150 75-33.56 67.08-150-75zm116.44 300 33.56 67.08-150 75-33.56-67.08z"></path>
</svg>