<?xml version="1.0" encoding="UTF-8"?>
<svg width="1200pt" height="1200pt" version="1.1" viewBox="0 0 1200 1200" xmlns="http://www.w3.org/2000/svg">
 <path d="m793.87 450h68.625v-75h-75v-148.5l56.906 31.359 36.188-65.719-280.6-154.55-280.6 154.55 36.188 65.719 56.906-31.359v148.5h-75v75h68.625l-100.69 637.5h-80.438v75h750v-75h-80.438zm-306.37-264.79 112.5-61.969 112.5 61.969v189.79h-225zm-5.4375 264.79h235.92l100.64 637.5h-106.12v-150c0-62.109-50.391-112.5-112.5-112.5s-112.5 50.391-112.5 112.5v150h-106.12zm155.44 637.5h-75v-150c0-20.719 16.781-37.5 37.5-37.5s37.5 16.781 37.5 37.5zm373.03-866.44-33.562-67.078 150-75 33.562 67.078zm0 157.92 150 75-33.562 67.078-150-75zm-937.5-300 150 75-33.562 67.078-150-75zm116.44 300 33.562 67.078-150 75-33.562-67.078z"/>
</svg>
