<?xml version="1.0" encoding="UTF-8"?>
<svg width="1200pt" height="1200pt" version="1.1" viewBox="0 0 1200 1200" xmlns="http://www.w3.org/2000/svg">
 <path d="m1012.5 150c103.55 0 187.5 83.945 187.5 187.5v525c0 103.55-83.949 187.5-187.5 187.5h-825c-103.55 0-187.5-83.949-187.5-187.5v-525c0-103.55 83.945-187.5 187.5-187.5zm-632.02 610.2c-4.5-10.801-10.578-24.523-18.227-41.176-7.1992-16.648-15.074-34.648-23.625-54-8.5508-19.348-17.773-39.148-27.676-59.398-9.4492-20.699-18.449-40.051-27-58.051-8.5508-18.449-16.648-34.875-24.301-49.273-7.1992-14.402-13.047-25.426-17.547-33.074-4.9531 53.098-9 110.7-12.152 172.8-3.1484 61.652-5.8477 123.98-8.0977 186.98h-64.125c1.7969-40.5 3.8242-81.227 6.0742-122.18 2.25-41.398 4.7227-81.898 7.4258-121.5 3.1484-40.051 6.2969-78.973 9.4492-116.77 3.5977-37.801 7.4258-73.574 11.473-107.32h57.375c12.152 19.797 25.203 43.199 39.152 70.199s27.898 55.348 41.848 85.051c13.953 29.25 27.453 58.723 40.5 88.422 13.051 29.25 24.977 56.027 35.777 80.328 10.801-24.301 22.723-51.078 35.773-80.328 13.051-29.699 26.551-59.172 40.5-88.422 13.949-29.703 27.902-58.051 41.852-85.051s27-50.402 39.148-70.199h57.375c15.301 150.75 26.777 306.67 34.426 467.77h-64.125c-2.25-63-4.9492-125.32-8.1016-186.98-3.1484-62.098-7.1992-119.7-12.148-172.8-4.5 7.6484-10.574 18.672-18.227 33.074-7.1992 14.398-15.074 30.824-23.625 49.273-8.5469 18-17.773 37.352-27.672 58.051-9.4531 20.25-18.453 40.051-27 59.398-8.5508 19.352-16.652 37.352-24.301 54-7.1992 16.652-13.051 30.375-17.551 41.176zm369.52-69.668c-14.645-14.641-14.645-38.387 0-53.031s38.391-14.645 53.031 0l55.309 55.309v-313.65c0-20.711 16.789-37.5 37.5-37.5 20.711 0 37.5 16.789 37.5 37.5v313.65l55.309-55.309c14.645-14.645 38.387-14.645 53.035 0 14.645 14.645 14.645 38.391 0 53.031l-119.32 119.33c-14.645 14.641-38.391 14.641-53.035 0z" fill-rule="evenodd"/>
</svg>
