<?xml version="1.0" encoding="UTF-8"?>
<svg width="1200pt" height="1200pt" version="1.1" viewBox="0 0 1200 1200" xmlns="http://www.w3.org/2000/svg">
 <path d="m197 722.26c20.523-7.7383 43.074-17.008 66.176-26.504 71.844-29.508 148.89-61.188 201.22-61.242l190.29-0.097657c19.758 0 37.742 8.1055 50.77 21.117 7.8516 7.8516 13.848 17.375 17.449 27.977l327.53-103.27c17.449-5.4844 36.141-6.9453 52.922-2.4531 16.484 4.3945 30.84 14.246 40.492 30.984l13.336 23.117c9.8359 17.066 11.609 35.957 6.9883 53.32-4.6641 17.391-15.887 33.25-31.961 44.023l-369.44 247.52c-3.1328 2.4531-6.9297 4.1523-11.156 4.7891l-464.45 70.895-90.172 39.23v12.23c0 13.254-10.742 23.996-23.996 23.996h-115.61c-13.254 0-23.996-10.742-23.996-23.996v-396.03c0-13.254 10.742-23.996 23.996-23.996h115.61c13.254 0 23.996 10.742 23.996 23.996zm212.23-284.39 131.13-131.13c-1.9141-3.0195-3.6719-6.1094-5.2305-9.2695-5.3711-11.027-8.5898-22.676-8.5898-35.191 0-20.297 8.2344-38.68 21.531-51.973 7.8242-7.7539 17.363-13.789 27.965-17.477v-11.551c0-13.254 10.742-23.996 23.996-23.996s23.996 10.742 23.996 23.996v11.551c4.5078 1.5586 8.8281 3.5586 12.91 5.9375 2.3828 1.3906 4.6641 2.9062 6.8594 4.5352l57.871-57.871c-30.301-16.172-64.898-25.328-101.64-25.328-59.668 0-113.73 24.195-152.83 63.297-39.105 39.105-63.297 93.16-63.297 152.83 0 36.738 9.1562 71.336 25.328 101.64zm166.71-166.71 32.867-32.867c-2.7227-0.97656-5.668-1.5156-8.7578-1.5156-7.0859 0-13.508 2.8477-18.086 7.4141-4.5625 4.6484-7.4258 11.043-7.4258 18.086 0 3.0469 0.51172 6.0078 1.4023 8.8867zm165.9-98.035-304.91 304.91c3.3008 3.7969 6.7188 7.4688 10.277 11.027 3.5586 3.5586 7.2266 6.9727 11.027 10.277l304.91-304.91c-3.3008-3.7969-6.7188-7.4688-10.277-11.027s-7.2266-6.9727-11.027-10.277zm48.996 61.469-131.14 131.14c1.9141 3.0312 3.6836 6.1094 5.2422 9.2852 5.3984 10.941 8.5898 22.605 8.5898 35.191 0 20.297-8.2188 38.664-21.516 51.961-7.7969 7.7969-17.336 13.848-27.977 17.52v11.523c0 13.254-10.742 23.996-23.996 23.996s-23.996-10.742-23.996-23.996v-11.566c-4.5195-1.5742-8.8438-3.5859-12.91-5.9531-2.3672-1.375-4.6641-2.8906-6.8594-4.5352l-57.871 57.871c30.301 16.172 64.898 25.328 101.64 25.328 59.684 0 113.73-24.195 152.83-63.297 39.105-39.105 63.297-93.148 63.297-152.83 0-36.738-9.1562-71.336-25.328-101.64zm-166.73 166.73-32.855 32.855c2.7344 0.97656 5.6992 1.5156 8.8008 1.5156 7.043 0 13.422-2.8477 18.027-7.457 4.6055-4.6055 7.457-10.984 7.457-18.027 0-3.0469-0.51172-5.9961-1.4297-8.8867zm-24.066-329.22c70.598 0 137.38 27.977 186.76 77.359 49.395 49.395 77.359 116.15 77.359 186.76 0 72.938-29.566 138.97-77.359 186.76-47.793 47.793-113.82 77.359-186.76 77.359-70.582 0-137.38-27.977-186.76-77.359-49.379-49.379-77.359-116.16-77.359-186.76 0-72.922 29.566-138.97 77.359-186.76 47.793-47.793 113.84-77.359 186.76-77.359zm-403.03 967.36 74.055-32.23c1.9688-0.85156 3.9844-1.4297 6.0078-1.7305l462.23-70.598 366.3-245.43c6.2344-4.1797 10.559-10.191 12.289-16.641 1.5039-5.6562 0.96484-11.75-2.1406-17.148l-13.336-23.117c-2.6094-4.5195-6.6758-7.2422-11.41-8.5039-7.5117-2.0117-16.91-1.0352-26.305 1.9141l-338.02 106.57v0.52344c0 19.699-8.0938 37.699-21.133 50.754-13.535 13.535-31.676 21.23-50.855 21.23h-73.105c-13.254 0-23.996-10.742-23.996-23.996 0-13.254 10.742-23.996 23.996-23.996h73.105c6.6172 0 12.629-2.6797 16.922-6.9727 4.3945-4.3945 7.0742-10.402 7.0742-17.023v-26.688c0-6.6172-2.707-12.645-7.0156-16.98-4.3359-4.3086-10.359-7.0156-16.98-7.0156h-190.29c-42.734-0.058594-115.34 29.793-183.05 57.602-29.621 12.176-58.367 23.996-84.344 33.152zm-47.992-307.61h-67.621v348.04h67.621z"/>
</svg>
