<?xml version="1.0" encoding="UTF-8"?>
<svg width="1200pt" height="1200pt" version="1.1" viewBox="0 0 1200 1200" xmlns="http://www.w3.org/2000/svg">
 <path d="m338.72 70.547c6.9375-6.75 15.516-10.547 25.453-10.547h467.53c61.312 0 112.45 46.594 118.92 106.78 80.531 0 139.22 58.547 139.22 133.4v706.4c0 73.453-59.953 133.4-133.4 133.4h-567.47c-74.578 0-133.4-58.781-133.4-138.56-42.797 0-75.328-0.23438-110.25-35.156l-0.09375 0.09375c-21.656-21.656-35.062-51.562-35.062-84.516v-567.84l5.6719-19.406zm612.56 168.24v643.08c0 32.906-13.453 62.766-35.156 84.422l0.09375 0.09375c-21.656 21.656-51.562 35.109-84.516 35.109l-504.1-0.046875c0 39.281 25.875 66.562 61.406 66.562h567.47c33.703 0 61.406-27.703 61.406-61.406l-0.046875-706.4c0-35.531-27.234-61.406-66.562-61.406zm-769.13 111.23v531.84c0 13.078 5.3438 24.984 13.969 33.609l-0.09375 0.09375c8.625 8.5781 20.531 13.922 33.703 13.922h601.92c13.078 0 24.984-5.3438 33.609-13.969l0.09375 0.09375c8.5781-8.625 13.922-20.531 13.922-33.703v-702.28c0-26.156-21.422-47.625-47.578-47.625h-431.53v182.02c0 19.875-16.125 36-36 36zm146.02-72v-95.109l-95.109 95.109z" fill-rule="evenodd"/>
</svg>
