<?xml version="1.0" encoding="UTF-8"?>
<svg width="1200pt" height="1200pt" version="1.1" viewBox="0 0 1200 1200" xmlns="http://www.w3.org/2000/svg">
 <path d="m1082 687.6c-27.148-16.199-59.887-16.875-86.25-2.5859l-58.273 28.348v-600.86c0-20.738-16.801-37.5-37.5-37.5h-600c-20.699 0-37.5 16.762-37.5 37.5v562.5 0.074219h-37.5v-37.574c0-20.738-16.801-37.5-37.5-37.5h-75c-20.699 0-37.5 16.762-37.5 37.5s16.801 37.5 37.5 37.5h37.5v337.5h-37.5c-20.699 0-37.5 16.762-37.5 37.5s16.801 37.5 37.5 37.5h75c20.699 0 37.5-16.762 37.5-37.5v-37.461h66.227l171.38 84.938c37.051 18.375 76.051 27.414 114.45 27.414 53.551 0 106.01-17.551 150.49-51.711l359.32-237.68c23.848-16.465 38.137-43.543 38.137-72.418 0-31.234-16.051-59.438-42.977-75.484zm-744.52-12.602v-525h525v599.85l-152.21 74.102c-9.1484-42.148-46.688-73.875-91.539-73.875h-153.23l-64.012-64.012c-7.0508-7.0508-16.574-10.988-26.512-10.988l-37.5-0.003906v-0.074219zm707.36 98.324-360.86 238.8c-56.102 43.012-124.61 49.613-188.1 18.148l-179.25-88.836c-5.1719-2.5859-10.875-3.8984-16.648-3.8984h-75v-187.46h134.48l64.012 64.012c7.0508 7.0508 16.574 10.988 26.512 10.988h168.75c10.352 0 18.75 8.4375 18.75 18.75s-8.3984 18.75-18.75 18.75l-168.75-0.003906c-20.699 0-37.5 16.762-37.5 37.5s16.801 37.5 37.5 37.5h168.75c2.8516 0 5.5117-0.60156 8.2891-0.82422 8.6641 2.5508 18.148 2.2891 26.852-1.9492l376.09-183.07c5.9258-3.3008 11.062-1.2383 13.613 0.30078 2.3984 1.3867 6.4102 4.7227 6.4102 11.059 0 4.2031-2.1367 8.1406-5.1367 10.238z"/>
 <path d="m540.68 673.24 34.762 30.113c7.0508 6.1094 15.824 9.1484 24.562 9.1484s17.512-3.0391 24.523-9.1484l34.762-30.113c87.488-75.637 128.21-158.51 128.21-260.74 0-14.211-8.0234-27.188-20.738-33.562l-150-75c-10.539-5.2891-22.988-5.2891-33.562 0l-150 75c-12.676 6.375-20.699 19.352-20.699 33.562 0 102.23 40.727 185.1 128.18 260.74zm59.324-293.81 111.64 55.801c-5.3984 69.938-36.602 125.21-101.4 181.31l-10.238 8.8867-10.238-8.8516c-64.836-56.102-96.039-111.38-101.4-181.31z"/>
 <path d="m450 262.5h300c20.699 0 37.5-16.762 37.5-37.5s-16.801-37.5-37.5-37.5h-300c-20.699 0-37.5 16.762-37.5 37.5s16.801 37.5 37.5 37.5z"/>
</svg>
