<?xml version="1.0" encoding="UTF-8"?>
<svg width="1200pt" height="1200pt" version="1.1" viewBox="0 0 1200 1200" xmlns="http://www.w3.org/2000/svg">
 <path d="m600 0c-331.37 0-600 268.63-600 600s268.63 600 600 600 600-268.63 600-600-268.63-600-600-600zm0 122.45c99.875 0 192.59 30.719 269.24 83.148 4.2734 2.9141 8.4258 6 12.602 9.0469l-667.19 667.18c-3.0586-4.1641-6.1328-8.3164-9.0586-12.59-52.43-76.656-83.148-169.34-83.148-269.23 0-263.75 213.8-477.55 477.55-477.55zm0 955.1c-99.695 0-192.23-30.59-268.79-82.824-4.2734-2.9141-8.4258-5.9883-12.602-9.0469l667.07-667.08c3.0586 4.1758 6.1328 8.3281 9.0469 12.602 52.246 76.57 82.824 169.11 82.824 268.79 0 263.75-213.8 477.56-477.55 477.56z"/>
 <path d="m600 936.74c160.73 0 295.07-112.64 328.61-263.27l-161.38 0.003906c-28.465 64.066-92.605 108.77-167.23 108.77-17.148 0-33.742-2.4102-49.477-6.8281l-117.17 117.17c49.152 28.043 106 44.156 166.64 44.156z"/>
 <path d="m927.19 520.4c-7.4883-30.898-19.297-60.109-34.656-87.012l-87.012 87.012z"/>
 <path d="m417.05 599.28c0-101.04 81.91-182.95 182.95-182.95 17.773 0 34.957 2.5664 51.203 7.3086l115.93-115.93c-49.246-28.246-106.27-44.438-167.14-44.438-185.98 0-336.74 150.76-336.74 336.73 0 60.84 16.223 117.86 44.449 167.12l116.65-116.65c-4.7188-16.246-7.3125-33.406-7.3125-51.188z"/>
</svg>
