<?xml version="1.0" encoding="UTF-8"?>
<svg width="1200pt" height="1200pt" version="1.1" viewBox="0 0 1200 1200" xmlns="http://www.w3.org/2000/svg">
 <path d="m425.02 150c-68.812 0-125.02 56.203-125.02 125.02v24.984h-24.984c-68.812 0-125.02 56.203-125.02 125.02v500.02c0 68.766 56.203 124.97 125.02 124.97h500.02c68.766 0 124.97-56.203 124.97-125.02v-24.984h24.984c68.812 0 125.02-56.203 125.02-125.02v-499.97c0-68.812-56.203-125.02-125.02-125.02zm0 50.016h500.02c41.953 0 74.953 33 74.953 75v500.02c0 41.953-33 74.953-75 74.953h-24.984v-424.97c0-68.812-56.203-125.02-125.02-125.02h-424.97v-24.984c0-42 33-75 75-75zm-150 150h500.02c41.953 0 74.953 33 74.953 75v124.97h-649.97v-124.97c0-42 33-75 75-75zm249.98 300c13.828 0 24.984 11.203 24.984 24.984v99.984h99.984c13.828 0 24.984 11.203 24.984 24.984 0 13.828-11.203 24.984-24.984 24.984h-99.984v99.984c0 13.875-11.156 25.078-24.984 25.078s-24.984-11.203-24.984-25.031v-99.984h-100.03c-13.781 0-24.984-11.203-24.984-24.984 0-13.828 11.203-25.031 24.984-25.031h99.984v-99.984c0.046875-13.828 11.203-24.984 25.031-24.984z"/>
 <path d="m300 399.98c-27.328 0-50.016 22.688-50.016 50.016s22.688 50.016 50.016 50.016 50.016-22.688 50.016-50.016-22.688-50.016-50.016-50.016z"/>
</svg>
