<?xml version="1.0" encoding="UTF-8"?>
<svg width="1200pt" height="1200pt" version="1.1" viewBox="0 0 1200 1200" xmlns="http://www.w3.org/2000/svg">
 <path d="m554.05 316.61c-25.855 0-47.242 21.391-47.242 47.242v74.613l-64.676-37.305c-22.391-12.926-51.75-5.1328-64.676 17.258l-45.848 79.668c-12.926 22.391-5.1328 51.75 17.258 64.676l64.5 37.305-64.5 37.305c-22.391 12.93-30.188 42.285-17.258 64.676l45.848 79.496c12.926 22.391 42.285 30.184 64.676 17.258l64.676-37.305v74.613c0 25.852 21.391 47.418 47.242 47.418h91.871c25.852 0 47.242-21.562 47.242-47.418v-74.613l64.676 37.305c22.391 12.926 51.75 5.1328 64.676-17.258l46.023-79.496c12.926-22.391 4.9531-51.75-17.434-64.676l-64.5-37.305 64.5-37.305c22.391-12.93 30.359-42.285 17.434-64.676l-46.023-79.668c-12.926-22.391-42.285-30.184-64.676-17.258l-64.676 37.305v-74.613c0-25.852-21.391-47.242-47.242-47.242zm0 47.07h91.871l0.17969 0.17969v91.871c0 27.578 32.074 46.039 55.961 32.25l79.496-45.848 46.023 79.492v0.17969l-79.668 45.848c-23.883 13.789-23.883 50.887 0 64.676l79.668 45.848v0.17969l-46.023 79.492v0.17969l-79.496-46.023c-23.883-13.789-55.957 4.6758-55.961 32.25v91.871s-0.17969 0.17969-0.17969 0.17969h-91.871v-0.17969-91.871c0-27.578-32.074-46.039-55.961-32.25l-79.668 46.023v-0.17969l-46.023-79.492v-0.17969l79.668-45.848c23.883-13.789 23.883-50.887 0-64.676l-79.668-45.848v-0.17969l46.023-79.492 79.668 45.848c23.883 13.789 55.957-4.6758 55.961-32.25v-91.871-0.17969z"/>
 <path d="m397.92 430.3-45.926 79.547c-3.1406 5.4453-3.9961 11.914-2.3672 17.984 1.625 6.0742 5.5977 11.25 11.043 14.395l79.535 45.926c4.2344 2.4453 6.8438 6.9609 6.8438 11.852 0 4.8867-2.6094 9.4062-6.8438 11.852l-79.535 45.926c-5.4414 3.1445-9.4141 8.3203-11.043 14.395-1.625 6.0703-0.77344 12.539 2.3672 17.984l45.926 79.547c3.1445 5.4414 8.3242 9.4141 14.395 11.043 6.0742 1.625 12.543 0.77344 17.988-2.3672l79.539-45.918c4.2344-2.4453 9.4492-2.4453 13.684 0 4.2344 2.4453 6.8438 6.9609 6.8438 11.852l0.003906 91.844c0 6.2852 2.5 12.312 6.9453 16.758 4.4453 4.4453 10.473 6.9453 16.758 6.9453h91.855c6.2852 0 12.312-2.5 16.758-6.9453 4.4453-4.4453 6.9453-10.473 6.9453-16.758l0.003907-91.844c0-4.8906 2.6094-9.4062 6.8438-11.852 4.2344-2.4453 9.4492-2.4453 13.684 0l79.539 45.918v-0.003906c5.4453 3.1445 11.914 3.9961 17.988 2.3711 6.0703-1.6289 11.25-5.6016 14.395-11.047l45.926-79.547c3.1406-5.4414 3.9922-11.914 2.3672-17.984-1.6289-6.0742-5.6016-11.25-11.043-14.395l-79.535-45.926v0.003907c-4.2344-2.4453-6.8438-6.9648-6.8438-11.852 0-4.8906 2.6094-9.4102 6.8438-11.855l79.535-45.926v0.003906c5.4414-3.1445 9.4141-8.3242 11.043-14.395 1.625-6.0742 0.77344-12.543-2.3672-17.988l-45.926-79.547v0.003906c-3.1445-5.4453-8.3242-9.418-14.395-11.043-6.0742-1.6289-12.543-0.77734-17.988 2.3672l-79.539 45.918v-0.003907c-4.2344 2.4453-9.4492 2.4453-13.684 0-4.2344-2.4453-6.8438-6.9609-6.8438-11.852l-0.003907-91.844v0.003906c0-6.2891-2.5-12.316-6.9453-16.762-4.4453-4.4453-10.473-6.9414-16.762-6.9414h-91.852c-6.2852 0-12.316 2.4961-16.762 6.9414-4.4453 4.4453-6.9414 10.473-6.9414 16.762l-0.003906 91.844v-0.003906c0 4.8906-2.6094 9.4102-6.8438 11.855-4.2344 2.4414-9.4492 2.4414-13.688 0l-79.539-45.918h0.003906c-5.4453-3.1445-11.914-3.9961-17.988-2.3672-6.0703 1.625-11.25 5.5977-14.395 11.043z"/>
</svg>
