<?xml version="1.0" encoding="UTF-8"?>
<svg width="1200pt" height="1200pt" version="1.1" viewBox="0 0 1200 1200" xmlns="http://www.w3.org/2000/svg">
 <path d="m927.19 682.64v-540.28c0-10.359-8.3906-18.75-18.75-18.75h-795.94c-10.359 0-18.75 8.3906-18.75 18.75v795.94c0 10.359 8.3906 18.75 18.75 18.75h615c30.844 71.766 101.58 119.39 180.89 119.39 109.08 0 197.81-88.734 197.81-197.81 0-102.66-78.891-186.32-179.06-195.94zm-316.08-521.53v214.55l-87.375-87.375c-3.6562-3.6562-8.4375-5.4844-13.266-5.4844-4.7812 0-9.6094 1.8281-13.266 5.4844l-87.375 87.375v-214.55zm-479.86 758.39v-758.39h241.08v259.82c0 7.5938 4.5938 14.438 11.578 17.344 6.9375 2.9062 15.047 1.3125 20.438-4.0781l106.12-106.12 106.12 106.12c3.6094 3.6094 8.3906 5.4844 13.266 5.4844 2.4375 0 4.875-0.46875 7.1719-1.4062 6.9844-2.9062 11.578-9.75 11.578-17.344v-259.82h241.08v520.5c-3.8906 0.375-7.5 1.5469-11.297 2.1562-5.7656 0.89062-11.484 1.875-17.109 3.2812-6.75 1.6406-13.219 3.7969-19.688 6.1406-5.3906 1.9688-10.688 3.8906-15.844 6.2344-6.1875 2.8594-12 6.2344-17.812 9.7031-4.8281 2.8594-9.6562 5.625-14.25 8.9062-5.5312 3.9844-10.594 8.4375-15.656 12.938-4.125 3.6562-8.3906 7.125-12.188 11.109-4.8281 5.0156-9 10.547-13.266 16.078-3.2812 4.2188-6.7969 8.25-9.7031 12.75-3.9844 6.1406-7.1719 12.75-10.5 19.312-2.2969 4.5469-4.9219 8.8125-6.8906 13.547-3.1406 7.6406-5.2031 15.703-7.4062 23.766-1.125 4.1719-2.7656 8.1094-3.6094 12.375-2.4844 12.562-3.8906 25.453-3.8906 38.719 0 10.172 1.0312 20.203 2.5781 30.094 0.32813 2.0156 0.5625 3.9844 0.9375 5.9531 0.28125 1.5938 0.42188 3.2812 0.79688 4.875zm777.19 119.39c-68.062 0-128.76-42.938-151.08-106.97-6.0938-16.969-9.2344-34.922-9.2344-53.344 0-88.406 71.906-160.36 160.31-160.36 88.402 0 160.31 71.906 160.31 160.36 0 88.406-71.906 160.31-160.31 160.31zm98.344-180.24c0 32.297-26.25 58.547-58.5 58.547h-74.156l7.7812 7.7812c7.3125 7.3125 7.3125 19.172 0 26.531-3.6562 3.6562-8.4375 5.4844-13.266 5.4844-4.7812 0-9.6094-1.8281-13.266-5.4844l-39.797-39.797c-1.7344-1.7344-3.0938-3.7969-4.0781-6.0469-0.9375-2.25-1.4531-4.6875-1.4531-7.2188 0-2.4844 0.51562-4.9688 1.4531-7.2188 0.9375-2.2969 2.3438-4.3594 4.0781-6.0469l39.797-39.75c7.3125-7.3125 19.172-7.3125 26.531 0 7.3125 7.3125 7.3125 19.172 0 26.531l-7.7812 7.7812h74.156c11.625 0 21-9.4219 21-21.047s-9.4219-21.047-21-21.047h-39.797c-10.359 0-18.75-8.3906-18.75-18.75s8.3906-18.75 18.75-18.75h39.797c32.25 0 58.5 26.25 58.5 58.547z"/>
</svg>
