<?xml version="1.0" encoding="UTF-8"?>
<svg width="1200pt" height="1200pt" version="1.1" viewBox="0 0 1200 1200" xmlns="http://www.w3.org/2000/svg">
 <path d="m1133.6 984.19c-20.062-44.062-65.625-60.938-84-66.188-10.969-62.016-90.562-76.828-191.81-78.938-10.359-123.42 232.45-133.78 240.37-282.19 9.9375-87.562-37.5-357.94-39.562-369.37-1.5469-8.3906-13.688-10.734-17.625-2.625-1.3125 2.625-137.26 266.06-249.37 371.81-69 15-125.63 67.688-151.87 96 33.797 55.031 45.703 136.64 115.12 144.37 10.312 1.5 17.062 11.25 15.375 21.375-1.6406 10.266-11.391 17.109-21.375 15.562-69.938-11.438-91.125-57.375-115.69-110.62-23.438-50.625-52.5-113.62-134.26-175.69-92.578-70.219-279.94-299.86-338.44-372.84-6.7031-8.3906-20.156-4.3594-21.188 6.3281-6.7031 70.078-8.0625 202.26 57.984 300.71 18.188 27 40.125 49.312 65.625 67.125 1.875 147.37 95.25 263.26 129.94 301.31-27.188 4.3125-62.062 9.5625-102.56 15-96 12.562-202.13-41.25-203.26-41.812-4.875-2.7188-12.234 0.60938-13.312 6.1875-16.125 67.688-8.0625 117.38 24.188 147.74 56.062 53.062 165.74 27.562 190.13 21 138.61 114.61 581.21 77.156 705.37 23.438 40.5-17.812 131.44-24.375 132.37-24.375 6.1875-0.375 10.453-7.5938 7.875-13.312zm-171.94-44.25c-24.656-0.23438-24.703-37.125 0-37.5 24.656 0.46875 24.609 37.172 0 37.5z"/>
</svg>
