<?xml version="1.0" encoding="UTF-8"?>
<svg width="1200pt" height="1200pt" version="1.1" viewBox="0 0 1200 1200" xmlns="http://www.w3.org/2000/svg">
 <path d="m318.74 225c0-10.359 8.3906-18.75 18.75-18.75h187.5c10.359 0 18.75 8.3906 18.75 18.75s-8.3906 18.75-18.75 18.75h-187.5c-10.359 0-18.75-8.3906-18.75-18.75zm281.26 93.75h-262.5c-10.359 0-18.75 8.3906-18.75 18.75s8.3906 18.75 18.75 18.75h262.5c10.359 0 18.75-8.3906 18.75-18.75s-8.3906-18.75-18.75-18.75zm-262.5 562.5h337.5c10.359 0 18.75-8.3906 18.75-18.75s-8.3906-18.75-18.75-18.75h-337.5c-10.359 0-18.75 8.3906-18.75 18.75s8.3906 18.75 18.75 18.75zm525-37.5h-112.5c-10.359 0-18.75 8.3906-18.75 18.75s8.3906 18.75 18.75 18.75h112.5c10.359 0 18.75-8.3906 18.75-18.75s-8.3906-18.75-18.75-18.75zm-75 112.5h-450c-10.359 0-18.75 8.3906-18.75 18.75s8.3906 18.75 18.75 18.75h450c10.359 0 18.75-8.3906 18.75-18.75s-8.3906-18.75-18.75-18.75zm243.74-468.74v337.5c0 44.578-31.359 82.969-75 91.875v95.625c0 24.844-9.8906 48.703-27.469 66.281-17.578 17.578-41.438 27.469-66.281 27.469h-525c-51.797 0-93.75-41.953-93.75-93.75v-95.625c-43.641-8.9062-75-47.297-75-91.875v-337.5c0-44.578 31.359-82.969 75-91.875v-208.13c0-51.797 41.953-93.75 93.75-93.75h379.87c3.1406 0.5625 6.0469 2.1562 8.25 4.5l225 225c2.3438 2.2031 3.9375 5.1094 4.5 8.25 0.046875 0.89062 0.046875 1.7344 0 2.625v60.375c44.531 8.5312 76.547 47.672 76.125 93zm-300-329.63v142.13c0 4.9688 1.9688 9.75 5.4844 13.266 3.5156 3.5156 8.2969 5.4844 13.266 5.4844h142.13zm-450 235.87h637.5v-37.5h-168.74c-31.078 0-56.25-25.172-56.25-56.25v-168.74h-356.26c-31.078 0-56.25 25.172-56.25 56.25zm-75 318.74c0 31.078 25.172 56.25 56.25 56.25h675c31.078 0 56.25-25.172 56.25-56.25v-225c0-31.078-25.172-56.25-56.25-56.25h-675c-31.078 0-56.25 25.172-56.25 56.25zm37.5 165.37v-75c-13.594-2.9531-26.391-8.8125-37.5-17.25v37.5c-0.60938 24.422 14.484 46.5 37.5 54.75zm675-71.625h-637.5v206.26c0 31.078 25.172 56.25 56.25 56.25h525c31.078 0 56.25-25.172 56.25-56.25zm75 18.75v-37.5c-11.109 8.4375-23.906 14.297-37.5 17.25v75c23.016-8.25 38.109-30.328 37.5-54.75zm-675-300h56.25v168.74c0 10.359 8.3906 18.75 18.75 18.75 10.359 0 18.75-8.3906 18.75-18.75v-168.74h56.25c10.359 0 18.75-8.3906 18.75-18.75s-8.3906-18.75-18.75-18.75h-150c-10.359 0-18.75 8.3906-18.75 18.75s8.3906 18.75 18.75 18.75zm215.26 184.87c2.9531 1.7812 6.3281 2.7188 9.75 2.625 6.5625-0.09375 12.609-3.4688 16.125-9l40.125-66 40.125 67.125c3.5156 5.5312 9.5625 8.9062 16.125 9 3.4219 0.09375 6.7969-0.84375 9.75-2.625 8.7656-5.4844 11.578-16.969 6.375-25.875l-50.625-85.125 50.625-84c5.3906-8.9062 2.5312-20.484-6.375-25.875s-20.484-2.5312-25.875 6.375l-40.125 66-40.125-67.125c-5.3906-8.9062-16.969-11.766-25.875-6.375s-11.766 16.969-6.375 25.875l50.625 85.125-50.625 84c-5.2031 8.9062-2.3906 20.391 6.375 25.875zm197.26-184.87h56.25v168.74c0 10.359 8.3906 18.75 18.75 18.75 10.359 0 18.75-8.3906 18.75-18.75v-168.74h56.25c10.359 0 18.75-8.3906 18.75-18.75s-8.3906-18.75-18.75-18.75h-150c-10.359 0-18.75 8.3906-18.75 18.75s8.3906 18.75 18.75 18.75z"/>
</svg>
