<?xml version="1.0" encoding="UTF-8"?>
<svg viewBox="0 0 1200 1200" xmlns="http://www.w3.org/2000/svg">
<path d="m920.16 562.56v-72.84c0-1.92 0-3.84-0.12-5.76 0-1.92 0.12-3.84 0.12-5.76 0-204-165.36-369.36-369.36-369.36s-369.36 165.24-369.36 369.24c0 103.08 42.24 196.32 110.4 263.28v349.92h417.12v-143.04h129.72c45 0 81.6-36.48 81.6-81.6v-131.66l98.4-16.07-98.4-156.48zm-368.16 107.28c-109.56 0-198.36-88.8-198.36-198.36s88.8-198.36 198.36-198.36 198.36 88.8 198.36 198.36-88.8 198.36-198.36 198.36zm-27.48-125.64a18.1 18.1 0 0 1-12.72-5.28l-70.92-70.92a17.9 17.9 0 0 1 0-25.44c7.08-6.97 18.48-7.08 25.44 0l58.2 58.2 113.28-113.3a17.9 17.9 0 0 1 25.44 0 17.9 17.9 0 0 1 0 25.45l-126 126a18.1 18.1 0 0 1-12.72 5.28z" fill="#e4c580"/>
</svg>
