<?xml version="1.0" encoding="UTF-8"?>
<svg width="1200pt" height="1200pt" version="1.1" viewBox="0 0 1200 1200" xmlns="http://www.w3.org/2000/svg">
 <path d="m920.16 562.56v-72.84c0-1.9219 0-3.8398-0.12109-5.7617 0-1.9219 0.12109-3.8398 0.12109-5.7617 0-204-165.36-369.36-369.36-369.36-204 0.003906-369.36 165.24-369.36 369.24 0 103.08 42.238 196.32 110.4 263.28v349.92h417.12v-143.04h129.72c45 0 81.602-36.48 81.602-81.602v-131.64l98.398-16.078-98.398-156.48zm-368.16 107.28c-109.56 0-198.36-88.801-198.36-198.36 0-109.56 88.801-198.36 198.36-198.36s198.36 88.801 198.36 198.36c0 109.56-88.801 198.36-198.36 198.36zm-27.48-125.64c-4.5586 0-9.2383-1.8008-12.719-5.2812l-70.922-70.922c-7.0781-7.0781-7.0781-18.48 0-25.441 7.0781-6.9609 18.48-7.0781 25.441 0l58.199 58.199 113.28-113.28c7.0781-7.0781 18.48-7.0781 25.441 0 7.0781 7.0781 7.0781 18.48 0 25.441l-126 126c-3.4805 3.4805-8.1602 5.2812-12.719 5.2812z" fill="#e4c580"/>
</svg>
