<?xml version="1.0" encoding="UTF-8" standalone="no"?>
<svg
   data-v-fde0c5aa=""
   viewBox="0 0 31 38"
   class="iconLeft"
   version="1.1"
   id="svg4"
   sodipodi:docname="favico_bg.svg"
   inkscape:version="1.3.2 (091e20ef0f, 2023-11-25)"
   width="31"
   height="38"
   xmlns:inkscape="http://www.inkscape.org/namespaces/inkscape"
   xmlns:sodipodi="http://sodipodi.sourceforge.net/DTD/sodipodi-0.dtd"
   xmlns="http://www.w3.org/2000/svg"
   xmlns:svg="http://www.w3.org/2000/svg">
  <sodipodi:namedview
     id="namedview4"
     pagecolor="#ffffff"
     bordercolor="#000000"
     borderopacity="0.25"
     inkscape:showpageshadow="2"
     inkscape:pageopacity="0.0"
     inkscape:pagecheckerboard="0"
     inkscape:deskcolor="#d1d1d1"
     inkscape:zoom="4.2733333"
     inkscape:cx="150.117"
     inkscape:cy="129.17317"
     inkscape:window-width="2560"
     inkscape:window-height="1528"
     inkscape:window-x="0"
     inkscape:window-y="0"
     inkscape:window-maximized="1"
     inkscape:current-layer="svg4" />
  <!---->
  <defs
     data-v-fde0c5aa=""
     id="defs1">
    <!---->
  </defs>
  <rect
     data-v-fde0c5aa=""
     fill="#1ab5e6"
     x="0.44102108"
     y="-0.060341537"
     width="38.367001"
     height="38.366508"
     class="logo-background-square"
     id="rect1"
     style="stroke-width:0.127889" />
  <defs
     data-v-fde0c5aa=""
     id="defs2">
    <!---->
  </defs>
  <defs
     data-v-fde0c5aa=""
     id="defs3">
    <!---->
  </defs>
  <g
     data-v-fde0c5aa=""
     id="884c05a2-dda9-4719-80df-fc408ac9dd6b"
     stroke="none"
     fill="#ebc246"
     transform="matrix(1.7380109,0,0,1.7380109,32.804548,127.96315)">
    <path
       id="path3"
       d="m -13.068115,-72.702753 a 2.503,2.503 0 0 0 -2.500388,2.500389 v 15.000086 c 0,1.378999 1.12239,2.500389 2.500388,2.500389 h 10.9994645 c 1.37799798,0 2.50038898,-1.12139 2.50038898,-2.500389 v -12.999775 a 0.504,0.504 0 0 0 -0.146091,-0.353987 l -4.00062198,-4.000623 a 0.504,0.504 0 0 0 -0.353987,-0.14609 z m 5.5739015,6.003181 a 2.503,2.503 0 0 1 1.26087,0.383206 0.501,0.501 0 0 1 -0.533791,0.845075 1.502,1.502 0 0 0 -2.301482,1.268737 v 0.500078 h 4.999655 a 0.5,0.5 0 0 1 0.500077,0.500078 v 3.000466 a 0.5,0.5 0 0 1 -0.500077,0.500078 h -6.9999655 a 0.5,0.5 0 0 1 -0.500078,-0.500078 v -3.000466 a 0.5,0.5 0 0 1 0.500078,-0.500078 h 1.000155 v -0.500078 a 2.503,2.503 0 0 1 2.5745585,-2.497018 z m -3.0746355,3.997251 v 2.000311 h 5.9998095 v -2.000311 z" />
  </g>
  <!---->
</svg>
