<svg xmlns="http://www.w3.org/2000/svg" viewBox="0 0 700 262.671"><path fill="none" d="M-.531.035H699.18v262.421H-.531z" style="font-variation-settings:&quot;wght&quot;600"/><path fill="#15db95" d="M122.479 58.648c-15.345-.106-30.535.39-42.917 12.489-9.206 13.683-9.206 13.683-9.288 50.438.012 2.2.02 4.336.033 6.472 0 5.82 0 11.64.02 17.461.026 6.029.047 12.058.047 18.087q0 7.125.012 14.249c.005 2.318.013 4.569.017 6.819.015 18.943-1.63 38.83 10.017 53.887 7.941 8.473 16.257 11.04 27.123 11.12 1.08 0 2.129 0 3.177-.016q5.387.023 10.773-.001c2.562 0 5.125-.017 7.687-.017 5.361 0 10.723 0 16.084-.016 6.953-.043 13.905-.06 20.857-.06 5.438 0 10.876 0 16.314-.016 2.596 0 5.192-.017 7.788-.017 3.72 0 7.44 0 11.161-.017 1.163 0 2.293-.016 3.422-.016 10.617.008 18.35-.559 26.943-8.035 6.658-7.083 9.495-18.919 10.165-29.033l.033-6.688c.032-3.888.065-7.775.065-11.664 0-2.782 0-5.565.016-8.348.022-5.832.038-11.664.039-17.496-.003-7.547.009-15.093.06-22.64.04-5.9.07-11.8.07-17.701v-8.492c.145-17.442 1.208-35.307-8.843-49.701-9.902-11.083-9.903-11.083-42.374-10.993h-6.909c-4.84 0-9.682-.02-14.523 0-6.25.018-12.498.036-18.748.018-4.9-.019-9.8-.018-14.7-.018-2.348.018-4.695.018-7.042.018l-.001-.023c-2.191-.008-4.386-.035-6.578-.05m8.746 25.692c1.607.01 3.216.03 4.82.036l.001.016c1.72 0 3.44 0 5.16-.014 3.591 0 7.182 0 10.773.014 4.58.014 9.159 0 13.738-.014 3.547-.013 7.095 0 10.643.001h5.062c23.794-.065 23.794-.065 31.05 7.998 7.366 10.473 6.587 23.472 6.48 36.163v6.179c0 4.293-.02 8.586-.05 12.88-.038 5.49-.047 10.98-.045 16.472 0 4.243-.012 8.486-.028 12.73-.012 2.024-.011 4.05-.011 6.074 0 2.829-.025 5.658-.048 8.487l-.024 4.865c-.491 7.36-2.57 15.971-7.449 21.125-6.297 5.44-11.964 5.852-19.743 5.846-.828 0-1.656.012-2.508.012-2.727.012-5.453.012-8.179.012-1.902 0-3.804.012-5.707.012-3.984.012-7.97.012-11.954.012q-7.642-.001-15.284.044c-3.928.012-7.857.012-11.786.012-1.878 0-3.755.012-5.633.012q-3.947.018-7.894 0c-.768.013-1.537.013-2.328.013-7.963-.058-14.056-1.926-19.875-8.091-8.535-10.956-7.33-25.425-7.34-39.208-.003-1.638-.01-3.275-.013-4.962q-.01-5.183-.01-10.368c.001-4.386-.014-8.773-.033-13.16-.015-4.234-.015-8.47-.015-12.704-.01-1.554-.015-3.108-.025-4.709.061-26.742.06-26.743 6.807-36.698 9.073-8.804 20.204-9.165 31.448-9.087"/><path fill="none" d="M131.225 84.34c-11.244-.078-22.375.283-31.448 9.086-6.746 9.956-6.746 9.956-6.807 36.699.01 1.601.016 3.155.025 4.709 0 4.235 0 8.47.015 12.704.02 4.387.034 8.774.034 13.16q0 5.184.01 10.368c.002 1.687.009 3.324.011 4.962.011 13.783-1.194 28.252 7.341 39.208 5.819 6.165 11.912 8.033 19.875 8.09.791 0 1.56 0 2.328-.011q3.947.016 7.894 0c1.878 0 3.755-.013 5.633-.013 3.929 0 7.858 0 11.786-.012q7.643-.045 15.284-.044c3.985 0 7.97 0 11.954-.012 1.903 0 3.805-.012 5.707-.012 2.726 0 5.452 0 8.179-.012.852 0 1.68-.012 2.508-.012 7.78.006 13.446-.406 19.743-5.846 4.879-5.154 6.958-13.765 7.449-21.125l.024-4.865c.023-2.83.047-5.658.047-8.487 0-2.025 0-4.05.012-6.074.016-4.244.028-8.487.028-12.73-.002-5.491.007-10.981.044-16.472.03-4.294.052-8.587.052-12.88v-6.179c.106-12.691.885-25.69-6.48-36.163-7.257-8.063-7.257-8.063-31.051-7.998h-5.062c-3.548 0-7.096-.014-10.643 0-4.58.013-9.159.027-13.738.013-3.59-.013-7.182-.014-10.772-.014-1.72.014-3.44.014-5.16.014l-.001-.016c-1.605-.006-3.214-.025-4.82-.036z"/><g font-family="Raleway" word-spacing="0"><text x="262.869" y="249.89" fill="#e4c580" stroke-width=".265" font-size="119.944" font-weight="700" letter-spacing="-1.323" style="-inkscape-font-specification:&quot;Raleway Bold&quot;;font-variant-ligatures:normal;font-variant-caps:normal;font-variant-numeric:normal;font-variant-east-asian:normal" transform="translate(-.493 -.236)"><tspan x="262.869" y="249.89" font-weight="400" style="-inkscape-font-specification:&quot;Raleway, @wght=400&quot;;font-variant-ligatures:normal;font-variant-caps:normal;font-variant-numeric:normal;font-variant-east-asian:normal;font-variation-settings:&quot;wght&quot;400">License</tspan></text><text fill="#fff" stroke-width="1.001" font-size="285.766" font-weight="400" letter-spacing="3.152" transform="translate(-106.527 -5.43)scale(.41973)"><tspan x="873.578" y="361.575"><tspan font-weight="700" style="-inkscape-font-specification:&quot;Raleway Bold&quot;">Plain</tspan></tspan></text></g><path fill="#15db95" d="m38.171 12.898.486-.005 1.59-.008.551-.003q1.441-.006 2.884-.01 1.485-.004 2.97-.017a292 292 0 0 1 2.291-.008q.547-.001 1.095-.008a121 121 0 0 1 1.536-.003l.452-.008c1.295.013 2.358.457 3.332 1.34q.14.18.284.37l.296.37c.53.812.506 1.707.554 2.65l.027.508c.089 1.894.096 3.788.092 5.685q-.002.893.002 1.784a155 155 0 0 1-.094 5.831l-.014.525c-.054 1.23-.299 2.148-1.13 3.084l-.415.361-.411.368c-.789.575-1.53.795-2.49.832l-.602.025-.65.02-.685.024c-3.717.116-7.436.1-11.153-.01l-.668-.015c-1.504-.055-2.572-.232-3.742-1.27-1.036-1.24-1.32-2.229-1.323-3.836l-.003-.487a532 532 0 0 1-.01-2.71l-.003-2.334q-.003-1.493-.012-2.984-.006-1.149-.006-2.298 0-.55-.005-1.1-.005-.771-.002-1.542l-.006-.455c.013-1.512.509-2.678 1.524-3.781 1.135-.816 2.101-.88 3.459-.885zm6.304 48.913q.489 0 .977-.002l2.042.002q1.302.003 2.604-.002 1.008-.002 2.016 0h.96c4.51-.01 4.51-.01 5.885 1.36 1.395 1.78 1.248 3.99 1.228 6.148v1.05q0 1.095-.01 2.19-.01 1.401-.009 2.801 0 1.082-.005 2.165-.003.516-.002 1.032-.001.721-.01 1.443l-.004.827c-.093 1.252-.487 2.716-1.411 3.592-1.194.925-2.268.995-3.742.994l-.475.002-1.55.002-1.082.002-2.265.002q-1.448 0-2.897.008-1.116.002-2.234.002l-1.067.002q-.749.003-1.496 0-.218.002-.441.002c-1.51-.01-2.664-.328-3.767-1.376-1.618-1.862-1.39-4.322-1.391-6.666l-.003-.843-.001-1.763q0-1.12-.007-2.237-.004-1.08-.003-2.16l-.004-.801c.011-4.547.011-4.547 1.29-6.24 1.965-1.71 4.44-1.546 6.873-1.538zM76.96 28.117l.487-.004 1.59-.009.55-.002q1.442-.007 2.884-.01 1.485-.004 2.97-.018 1.146-.007 2.291-.008.547 0 1.095-.007.768-.006 1.536-.004l.452-.008c1.295.013 2.358.458 3.332 1.34l.285.37.295.371c.53.812.507 1.707.554 2.649l.027.508c.089 1.895.096 3.789.092 5.685q-.002.893.003 1.785a155 155 0 0 1-.095 5.83l-.014.526c-.054 1.23-.299 2.148-1.13 3.084l-.415.36-.41.368c-.79.576-1.531.796-2.491.833l-.602.025-.65.02-.684.023c-3.717.117-7.437.1-11.154-.01l-.668-.015c-1.504-.055-2.572-.232-3.742-1.27-1.036-1.24-1.32-2.228-1.323-3.835l-.003-.488a532 532 0 0 1-.01-2.71l-.003-2.334a616 616 0 0 0-.012-2.983q-.006-1.15-.006-2.299 0-.55-.005-1.1-.004-.771-.002-1.542l-.005-.455c.012-1.512.508-2.678 1.523-3.781 1.135-.816 2.101-.88 3.459-.885z"/></svg>