<?xml version="1.0" encoding="UTF-8" standalone="no"?>
<svg
   data-v-423bf9ae=""
   viewBox="0 0 72 90"
   class="iconLeft"
   version="1.1"
   id="svg3"
   sodipodi:docname="icon_only.svg"
   width="72"
   height="90"
   inkscape:version="1.3.2 (091e20ef0f, 2023-11-25)"
   xmlns:inkscape="http://www.inkscape.org/namespaces/inkscape"
   xmlns:sodipodi="http://sodipodi.sourceforge.net/DTD/sodipodi-0.dtd"
   xmlns="http://www.w3.org/2000/svg"
   xmlns:svg="http://www.w3.org/2000/svg"><defs
   id="defs3" />
<sodipodi:namedview
   id="namedview3"
   pagecolor="#ffffff"
   bordercolor="#000000"
   borderopacity="0.25"
   inkscape:showpageshadow="2"
   inkscape:pageopacity="0.0"
   inkscape:pagecheckerboard="0"
   inkscape:deskcolor="#d1d1d1"
   inkscape:zoom="3.6996403"
   inkscape:cx="252.59212"
   inkscape:cy="44.869227"
   inkscape:window-width="2560"
   inkscape:window-height="1528"
   inkscape:window-x="0"
   inkscape:window-y="0"
   inkscape:window-maximized="1"
   inkscape:current-layer="svg3" />
<!---->
<!---->
<!---->
<!---->
<!---->
<g
   data-v-423bf9ae=""
   id="g5"
   transform="matrix(4.5,0,0,4.5,110.22357,-120.50096)"
   stroke="none"
   fill="#ebc246">
  <path
     d="m -19.433932,36.840767 h 6 v 2 h -6 z"
     id="path4" />
  <path
     d="m -8.5799316,30.986767 -4.0000004,-4 a 0.504,0.504 0 0 0 -0.354,-0.146 h -9 a 2.503,2.503 0 0 0 -2.5,2.5 v 15 c 0,1.379 1.122,2.5 2.5,2.5 h 11 c 1.3780004,0 2.5000004,-1.121 2.5000004,-2.5 v -13 a 0.504,0.504 0 0 0 -0.146,-0.354 z m -3.8540004,8.354 a 0.5,0.5 0 0 1 -0.5,0.5 h -7 a 0.5,0.5 0 0 1 -0.5,-0.5 v -3 a 0.5,0.5 0 0 1 0.5,-0.5 h 1 v -0.5 a 2.503,2.503 0 0 1 3.835,-2.114 0.501,0.501 0 0 1 -0.534,0.845 1.502,1.502 0 0 0 -2.301,1.269 v 0.5 h 5 a 0.5,0.5 0 0 1 0.5,0.5 z"
     id="path5" />
</g>

  <desc
   id="desc1">Created with Fabric.js 5.2.4</desc>

  
  
  
</svg>
