<?xml version="1.0" encoding="UTF-8" standalone="no"?>
<svg
   data-v-423bf9ae=""
   viewBox="0 0 90 90"
   class="iconLeft"
   version="1.1"
   id="svg3"
   sodipodi:docname="monchrome_icon.svg"
   width="90"
   height="90"
   inkscape:version="1.3.2 (091e20ef0f, 2023-11-25)"
   xmlns:inkscape="http://www.inkscape.org/namespaces/inkscape"
   xmlns:sodipodi="http://sodipodi.sourceforge.net/DTD/sodipodi-0.dtd"
   xmlns="http://www.w3.org/2000/svg"
   xmlns:svg="http://www.w3.org/2000/svg">
  <defs
     id="defs3" />
  <sodipodi:namedview
     id="namedview3"
     pagecolor="#ffffff"
     bordercolor="#000000"
     borderopacity="0.25"
     inkscape:showpageshadow="2"
     inkscape:pageopacity="0.0"
     inkscape:pagecheckerboard="0"
     inkscape:deskcolor="#d1d1d1"
     inkscape:zoom="3.5989209"
     inkscape:cx="205.89505"
     inkscape:cy="45.291354"
     inkscape:window-width="2560"
     inkscape:window-height="1528"
     inkscape:window-x="0"
     inkscape:window-y="0"
     inkscape:window-maximized="1"
     inkscape:current-layer="svg3" />
  <!---->
  <!---->
  <!---->
  <!---->
  <g
     id="g3"
     transform="translate(8.289543,0.00108539)">
    <path
       d="m 23,45.5 h 27 v 9 H 23 Z"
       id="path2"
       style="fill:#000000;stroke:none;stroke-width:4.5" />
    <path
       d="m 71.843,19.157 -18,-18 A 2.268,2.268 0 0 0 52.25,0.5 H 11.75 A 11.2635,11.2635 0 0 0 0.5,11.75 v 67.5 c 0,6.2055 5.049,11.25 11.25,11.25 h 49.5 c 6.201,0 11.25,-5.0445 11.25,-11.25 V 20.75 A 2.268,2.268 0 0 0 71.843,19.157 Z M 54.5,56.75 A 2.25,2.25 0 0 1 52.25,59 H 20.75 A 2.25,2.25 0 0 1 18.5,56.75 V 43.25 A 2.25,2.25 0 0 1 20.75,41 h 4.5 V 38.75 A 11.2635,11.2635 0 0 1 42.5075,29.237 2.2545,2.2545 0 0 1 40.1045,33.0395 6.759,6.759 0 0 0 29.75,38.75 V 41 h 22.5 a 2.25,2.25 0 0 1 2.25,2.25 z"
       id="path3"
       style="fill:#000000;stroke:none;stroke-width:4.5" />
  </g>
  <!---->
</svg>
