<svg data-v-fde0c5aa="" xmlns="http://www.w3.org/2000/svg" viewBox="0 0 300 300" class="iconLeft"><!----><defs data-v-fde0c5aa=""><!----></defs><rect data-v-fde0c5aa="" fill="#1AB5E6" x="0" y="0" width="300px" height="300px" class="logo-background-square"></rect><defs data-v-fde0c5aa=""><!----></defs><g data-v-fde0c5aa="" id="4bc54887-0d01-4d24-ad07-e0b41e54d9be" fill="#ffffff" transform="matrix(2.2368221282958984,0,0,2.2368221282958984,78.86213952472694,130.33833270239396)"><path d="M0.87 3.98L0.87 13.78L2.72 13.78L2.72 10.19L4.90 10.19C6.71 10.19 8.04 8.96 8.04 7.08C8.04 5.21 6.75 3.98 4.90 3.98ZM2.72 5.71L4.72 5.71C5.60 5.71 6.19 6.24 6.19 7.08C6.19 7.92 5.60 8.46 4.72 8.46L2.72 8.46ZM10.86 3.98L9.10 3.98L9.10 13.78L10.86 13.78ZM12.21 8.43L13.64 9.35C14.07 8.62 14.64 8.15 15.57 8.15C16.52 8.15 17.02 8.67 17.02 9.32L17.02 9.49L14.24 9.80C12.95 9.94 12.07 10.70 12.07 11.80C12.07 13.13 13.10 13.97 14.67 13.97C16.17 13.97 16.69 13.24 16.86 12.94L17.05 12.94L17.05 13.78L18.79 13.78L18.79 9.34C18.79 7.71 17.56 6.64 15.67 6.64C13.97 6.64 13.03 7.39 12.21 8.43ZM13.92 11.70C13.92 11.30 14.24 11.06 14.90 10.98L17.02 10.72L17.02 10.84C17.02 11.79 16.34 12.52 15.11 12.52C14.32 12.52 13.92 12.18 13.92 11.70ZM20.02 4.82C20.02 5.53 20.57 6.02 21.27 6.02C21.97 6.02 22.51 5.53 22.51 4.82C22.51 4.10 21.97 3.61 21.27 3.61C20.57 3.61 20.02 4.10 20.02 4.82ZM22.15 6.83L20.38 6.83L20.38 13.78L22.15 13.78ZM23.83 6.83L23.83 13.78L25.59 13.78L25.59 10.19C25.59 8.96 26.19 8.26 27.33 8.26C28.34 8.26 28.90 8.83 28.90 9.80L28.90 13.78L30.66 13.78L30.66 9.63C30.66 7.83 29.50 6.72 27.96 6.72C26.68 6.72 26.04 7.31 25.76 7.95L25.56 7.95L25.56 6.83ZM32.28 3.98L32.28 13.78L38.67 13.78L38.67 12.07L34.13 12.07L34.13 3.98ZM39.40 4.82C39.40 5.53 39.94 6.02 40.64 6.02C41.34 6.02 41.89 5.53 41.89 4.82C41.89 4.10 41.34 3.61 40.64 3.61C39.94 3.61 39.40 4.10 39.40 4.82ZM41.52 6.83L39.76 6.83L39.76 13.78L41.52 13.78ZM42.78 10.30C42.78 12.46 44.38 13.97 46.40 13.97C48.34 13.97 49.56 12.89 49.90 11.31L48.16 10.88C47.98 11.76 47.49 12.35 46.42 12.35C45.29 12.35 44.55 11.54 44.55 10.30C44.55 9.07 45.36 8.26 46.42 8.26C47.49 8.26 48.03 8.93 48.16 9.74L49.90 9.30C49.53 7.71 48.33 6.64 46.40 6.64C44.38 6.64 42.78 8.15 42.78 10.30ZM50.62 10.25C50.62 12.40 52.12 13.97 54.19 13.97C56.06 13.97 56.87 12.99 57.34 12.26L55.83 11.40C55.59 11.89 55.15 12.43 54.17 12.43C53.16 12.43 52.50 11.72 52.46 10.82L57.60 10.82L57.60 10.14C57.60 8.05 56.18 6.64 54.17 6.64C52.12 6.64 50.62 8.15 50.62 10.25ZM52.47 9.59C52.58 8.76 53.16 8.18 54.15 8.18C55.06 8.18 55.68 8.74 55.78 9.59ZM58.86 6.83L58.86 13.78L60.62 13.78L60.62 10.19C60.62 8.96 61.22 8.26 62.36 8.26C63.36 8.26 63.92 8.83 63.92 9.80L63.92 13.78L65.69 13.78L65.69 9.63C65.69 7.83 64.53 6.72 62.99 6.72C61.71 6.72 61.07 7.31 60.79 7.95L60.59 7.95L60.59 6.83ZM67.03 8.79C67.03 10.08 67.91 10.68 69.86 10.95L70.07 10.98C70.83 11.07 71.54 11.13 71.54 11.65C71.54 12.19 70.88 12.49 70.20 12.49C69.30 12.49 68.38 12.04 67.94 11.13L66.53 12.01C67.17 12.99 68.24 13.97 70.15 13.97C72.00 13.97 73.28 12.98 73.28 11.62C73.28 10.35 72.45 9.79 70.22 9.49L70.01 9.46C69.29 9.37 68.77 9.28 68.77 8.78C68.77 8.36 69.13 8.09 69.76 8.09C70.69 8.09 71.39 8.62 71.92 9.25L73.19 8.25C72.25 7.27 71.25 6.64 69.82 6.64C68.21 6.64 67.03 7.50 67.03 8.79ZM74.00 10.25C74.00 12.40 75.50 13.97 77.57 13.97C79.44 13.97 80.25 12.99 80.72 12.26L79.21 11.40C78.97 11.89 78.53 12.43 77.55 12.43C76.54 12.43 75.88 11.72 75.84 10.82L80.98 10.82L80.98 10.14C80.98 8.05 79.56 6.64 77.55 6.64C75.50 6.64 74.00 8.15 74.00 10.25ZM75.85 9.59C75.96 8.76 76.54 8.18 77.53 8.18C78.44 8.18 79.06 8.74 79.16 9.59Z"></path></g><defs data-v-fde0c5aa=""><!----></defs><g data-v-fde0c5aa="" id="884c05a2-dda9-4719-80df-fc408ac9dd6b" stroke="none" fill="#EBC246" transform="matrix(1.7380108833312988,0,0,1.7380108833312988,32.17895083163548,128.27486342120966)"><path d="M9.5 12.5h6v2h-6z"></path><path d="M20.354 6.646l-4-4A.504.504 0 0016 2.5H7A2.503 2.503 0 004.5 5v15c0 1.379 1.122 2.5 2.5 2.5h11c1.378 0 2.5-1.121 2.5-2.5V7a.504.504 0 00-.146-.354zM16.5 15a.5.5 0 01-.5.5H9a.5.5 0 01-.5-.5v-3a.5.5 0 01.5-.5h1V11a2.503 2.503 0 013.835-2.114.501.501 0 01-.534.845A1.502 1.502 0 0011 11v.5h5a.5.5 0 01.5.5v3z"></path></g><!----></svg>