<?xml version="1.0" encoding="UTF-8" standalone="no"?>
<!-- Created with Inkscape (http://www.inkscape.org/) -->

<svg
   width="700mm"
   height="262.67139mm"
   viewBox="0 0 700 262.67139"
   version="1.1"
   id="svg1"
   inkscape:version="1.3.2 (091e20ef0f, 2023-11-25)"
   sodipodi:docname="named_logo_color_transp.svg"
   xmlns:inkscape="http://www.inkscape.org/namespaces/inkscape"
   xmlns:sodipodi="http://sodipodi.sourceforge.net/DTD/sodipodi-0.dtd"
   xmlns="http://www.w3.org/2000/svg"
   xmlns:svg="http://www.w3.org/2000/svg">
  <sodipodi:namedview
     id="namedview1"
     pagecolor="#cccccc"
     bordercolor="#000000"
     borderopacity="0.25"
     inkscape:showpageshadow="2"
     inkscape:pageopacity="0.0"
     inkscape:pagecheckerboard="false"
     inkscape:deskcolor="#d1d1d1"
     inkscape:document-units="mm"
     inkscape:zoom="0.5"
     inkscape:cx="1131"
     inkscape:cy="284"
     inkscape:window-width="2560"
     inkscape:window-height="1528"
     inkscape:window-x="0"
     inkscape:window-y="0"
     inkscape:window-maximized="1"
     inkscape:current-layer="layer3"
     showgrid="true">
    <inkscape:page
       x="0"
       y="0"
       width="700"
       height="262.67139"
       id="page7"
       margin="0 0 0.92088163"
       bleed="0" />
    <inkscape:grid
       id="grid2"
       units="mm"
       originx="9.9999999e-09"
       originy="0"
       spacingx="0.99999998"
       spacingy="0.99999999"
       empcolor="#0099e5"
       empopacity="0.30196078"
       color="#0099e5"
       opacity="0.14901961"
       empspacing="5"
       dotted="false"
       gridanglex="30"
       gridanglez="30"
       visible="true" />
  </sodipodi:namedview>
  <defs
     id="defs1">
    <rect
       x="873.57812"
       y="97.046875"
       width="2669.5938"
       height="347.88281"
       id="rect1" />
  </defs>
  <g
     inkscape:groupmode="layer"
     id="layer2"
     inkscape:label="background">
    <rect
       style="font-variation-settings:'wght' 600;fill:none;fill-opacity:1;stroke:#0d19a3;stroke-width:0.288976;stroke-opacity:0"
       id="rect2"
       width="699.71106"
       height="262.42102"
       x="-0.53144002"
       y="0.034933899"
       inkscape:label="bgrectangle" />
  </g>
  <g
     inkscape:groupmode="layer"
     id="layer6"
     inkscape:label="abstract_page"
     transform="translate(-0.49290362,-0.23561294)">
    <path
       d="m 122.9716,58.883344 v 5.17e-4 c -15.34452,-0.106205 -30.535109,0.388923 -42.916247,12.488643 -9.206441,13.683346 -9.206139,13.683594 -9.288838,50.438266 0.0127,2.20057 0.02077,4.33623 0.03307,6.47196 0,5.82049 7.2e-5,11.64068 0.02067,17.46095 0.0259,6.02894 0.0467,12.05819 0.04651,18.08727 0,4.74938 0.0044,9.49871 0.0124,14.24822 0.0044,2.31834 0.01254,4.56907 0.01654,6.81922 0.01473,18.94345 -1.63013,38.83029 10.017476,53.88715 7.940784,8.47353 16.256334,11.04091 27.122889,11.12026 1.08018,0 2.12858,8e-5 3.17707,-0.0165 3.59073,0.0159 7.18152,0.0157 10.77247,-0.001 2.56227,0 5.12483,-0.0165 7.68739,-0.0165 5.36137,0 10.72291,7e-5 16.08377,-0.0165 6.95289,-0.0423 13.90464,-0.0591 20.85712,-0.0589 5.43798,0 10.87614,-2.1e-4 16.31374,-0.0171 2.59627,0 5.19194,-0.0171 7.78815,-0.0171 3.7202,0 7.44051,3.3e-4 11.16108,-0.0165 1.16354,0 2.29268,-0.0165 3.42201,-0.0165 10.61679,0.008 18.34985,-0.55834 26.94306,-8.03413 6.65769,-7.08346 9.49509,-18.91908 10.16527,-29.03389 0.0166,-3.37736 0.0165,-3.37728 0.0331,-6.68796 0.0314,-3.88792 0.0646,-7.77494 0.0646,-11.66337 0,-2.78253 -2e-5,-5.5656 0.0165,-8.34833 0.0214,-5.83197 0.0375,-11.66393 0.0382,-17.49609 -0.003,-7.54679 0.009,-15.09237 0.0599,-22.63893 0.041,-5.9009 0.0703,-11.80117 0.0703,-17.70228 v -8.49147 c 0.14525,-17.44259 1.20784,-35.307336 -8.84287,-49.701362 -9.9025,-11.082686 -9.90302,-11.082772 -42.37416,-10.993127 -2.3031,-3.31e-4 -4.60558,0 -6.90862,0 -4.84101,-3.31e-4 -9.68243,-0.0187 -14.52366,0 -6.2489,0.0187 -12.49802,0.03679 -18.74718,0.01809 -4.90037,-0.0187 -9.80075,-0.01809 -14.70091,-0.01809 -2.34714,0.0187 -4.69453,0.01809 -7.04195,0.01809 l -0.001,-0.02274 c -2.19063,-0.0076 -4.38582,-0.03496 -6.57789,-0.05013 z m 8.74675,25.691972 c 1.60631,0.01104 3.21513,0.03061 4.82038,0.03617 l 5.1e-4,0.01654 c 1.72015,0 3.44046,-3.74e-4 5.16041,-0.01395 3.59074,0 7.18158,3.75e-4 10.77247,0.01395 4.57927,0.01358 9.15858,-3.74e-4 13.73766,-0.01395 3.54756,-0.01358 7.09536,2.8e-4 10.64277,5.17e-4 1.68761,0 3.37455,-2.37e-4 5.06222,0 23.79426,-0.06522 23.79445,-0.06523 31.05082,7.998478 7.36497,10.473039 6.5866,23.471479 6.48022,36.162649 v 6.17844 c 0,4.2936 -0.0217,8.58688 -0.0517,12.88035 -0.0373,5.49085 -0.046,10.98084 -0.0439,16.47186 -5.6e-4,4.24344 -0.0123,8.48666 -0.0279,12.72997 -0.0122,2.0247 -0.0119,4.0495 -0.0119,6.07405 0,2.82921 -0.0245,5.65799 -0.0475,8.48682 -0.0122,2.40884 -0.0122,2.4085 -0.0243,4.86585 -0.49109,7.35949 -2.57,15.97091 -7.44864,21.12481 -6.29694,5.43936 -11.9637,5.85137 -19.7435,5.84564 -0.82755,0 -1.65525,0.0119 -2.50786,0.0119 -2.72635,0.0122 -5.45221,0.0124 -8.17831,0.0124 -1.90245,0 -3.80464,0.0119 -5.70714,0.0119 -3.98458,0.0123 -7.96946,0.0124 -11.95431,0.0124 -5.09465,-1.9e-4 -10.18888,0.0126 -15.28383,0.0434 -3.92832,0.0121 -7.85712,0.0119 -11.78584,0.0119 -1.87779,0 -3.75567,0.0124 -5.63325,0.0124 -2.63138,0.0122 -5.26287,0.0121 -7.89409,5.2e-4 -0.76831,0.0121 -1.53649,0.0119 -2.32802,0.0119 -7.96281,-0.0577 -14.0559,-1.92567 -19.87476,-8.09098 -8.535152,-10.95531 -7.329845,-25.42476 -7.340635,-39.20794 -0.0028,-1.63721 -0.0093,-3.27464 -0.0124,-4.96145 -0.0059,-3.45574 -0.0093,-6.9122 -0.0093,-10.36784 1.36e-4,-4.38672 -0.01462,-8.77329 -0.03359,-13.15993 -0.01508,-4.2348 -0.0155,-8.46968 -0.0155,-12.70465 -0.0091,-1.55394 -0.01494,-3.10763 -0.02429,-4.70875 0.06058,-26.74256 0.06049,-26.74258 6.806815,-36.698538 9.07271,-8.803668 20.20406,-9.164057 31.44821,-9.086783 z"
       style="fill:#15db95;fill-opacity:1;stroke-width:1.59502"
       id="path45"
       inkscape:label="rectangle" />
    <path
       d="m 131.71835,84.575316 c -11.24416,-0.07727 -22.3755,0.283115 -31.44821,9.086783 -6.746333,9.955961 -6.74624,9.955981 -6.80682,36.698541 0.0093,1.60112 0.01519,3.15481 0.02429,4.70875 0,4.23497 4.23e-4,8.46985 0.0155,12.70465 0.01897,4.38664 0.03373,8.77321 0.03359,13.15993 0,3.45564 0.0034,6.9121 0.0093,10.36784 0.0031,1.68681 0.0096,3.32424 0.0124,4.96145 0.01079,13.78318 -1.194517,28.25263 7.34064,39.20794 5.81886,6.16531 11.91194,8.03328 19.87475,8.09098 0.79153,0 1.55971,2.2e-4 2.32803,-0.0119 2.63122,0.0116 5.26271,0.0117 7.89409,-5.2e-4 1.87758,0 3.75545,-0.0124 5.63324,-0.0124 3.92872,0 7.85752,2.1e-4 11.78585,-0.0119 5.09495,-0.0308 10.18917,-0.0436 15.28382,-0.0434 3.98485,0 7.96973,-1.1e-4 11.95431,-0.0124 1.9025,0 3.80469,-0.0119 5.70714,-0.0119 2.7261,0 5.45196,-2e-4 8.17831,-0.0124 0.85261,0 1.68031,-0.0119 2.50786,-0.0119 7.7798,0.006 13.44656,-0.40628 19.74351,-5.84564 4.87863,-5.1539 6.95754,-13.76532 7.44864,-21.12481 0.0121,-2.45735 0.0121,-2.45701 0.0243,-4.86585 0.023,-2.82883 0.0475,-5.65761 0.0475,-8.48682 0,-2.02455 -3.2e-4,-4.04935 0.0119,-6.07405 0.0156,-4.24331 0.0273,-8.48653 0.0279,-12.72997 -0.002,-5.49102 0.007,-10.98101 0.0439,-16.47186 0.03,-4.29347 0.0517,-8.58675 0.0517,-12.88035 v -6.17844 c 0.10638,-12.69117 0.88475,-25.68961 -6.48022,-36.162652 -7.25637,-8.063712 -7.25656,-8.063698 -31.05082,-7.998478 -1.68767,-2.37e-4 -3.37461,0 -5.06222,0 -3.54741,-2.37e-4 -7.09521,-0.0141 -10.64277,-5.17e-4 -4.57908,0.01358 -9.15839,0.02753 -13.73766,0.01395 -3.59089,-0.01358 -7.18173,-0.01395 -10.77247,-0.01395 -1.71995,0.01358 -3.44026,0.01395 -5.16041,0.01395 l -5.1e-4,-0.01654 c -1.60525,-0.0056 -3.21407,-0.02513 -4.82039,-0.03617 z"
       style="fill:none;fill-opacity:1;stroke-width:1.59502"
       id="path44"
       inkscape:label="trans_inner_rect" />
  </g>
  <g
     inkscape:groupmode="layer"
     id="layer3"
     inkscape:label="brandtext">
    <text
       xml:space="preserve"
       style="font-style:normal;font-variant:normal;font-weight:bold;font-stretch:normal;font-size:119.944px;font-family:Raleway;-inkscape-font-specification:'Raleway Bold';font-variant-ligatures:normal;font-variant-caps:normal;font-variant-numeric:normal;font-variant-east-asian:normal;letter-spacing:-1.32292px;word-spacing:0px;fill:#e4c580;fill-opacity:1;stroke-width:0.264583"
       x="262.86948"
       y="249.89014"
       id="text2"
       inkscape:label="license"
       transform="translate(-0.49290362,-0.23561294)"><tspan
         sodipodi:role="line"
         id="tspan2"
         style="font-style:normal;font-variant:normal;font-weight:normal;font-stretch:normal;font-size:119.944px;font-family:Raleway;-inkscape-font-specification:'Raleway, @wght=400';font-variant-ligatures:normal;font-variant-caps:normal;font-variant-numeric:normal;font-variant-east-asian:normal;font-variation-settings:'wght' 400;letter-spacing:-1.32292px;fill:#e4c580;fill-opacity:1;stroke-width:0.264583"
         x="262.86948"
         y="249.89014">License</tspan></text>
    <text
       xml:space="preserve"
       transform="matrix(0.41972955,0,0,0.41972955,-106.52693,-5.429712)"
       id="text1"
       style="font-style:normal;font-variant:normal;font-weight:normal;font-stretch:normal;font-size:285.766px;font-family:Raleway;-inkscape-font-specification:'Raleway, @wght=700';font-variant-ligatures:normal;font-variant-caps:normal;font-variant-numeric:normal;font-variant-east-asian:normal;font-feature-settings:'ss02', 'ss05';font-variation-settings:'wght' 700;letter-spacing:3.15183px;word-spacing:0px;white-space:pre;shape-inside:url(#rect1);display:inline;fill:#ffffff;stroke-width:1.00064436;stroke-dasharray:none"
       inkscape:label="plain"><tspan
         x="873.57812"
         y="361.57515"
         id="tspan4"><tspan
           style="font-weight:bold;-inkscape-font-specification:'Raleway Bold'"
           id="tspan3">Plain</tspan></tspan></text>
  </g>
  <g
     inkscape:label="dots"
     inkscape:groupmode="layer"
     id="layer1"
     transform="translate(-0.49290362,-0.23561294)">
    <path
       d="m 38.663955,13.133272 c 0.160476,-0.0021 0.320965,-0.0027 0.486288,-0.0043 0.53021,-0.0043 1.060335,-0.0066 1.590551,-0.0088 0.181558,0 0.363146,-0.0021 0.550187,-0.0026 0.961175,-0.0046 1.922298,-0.0074 2.883455,-0.0093 0.990323,-0.0023 1.980505,-0.0095 2.97074,-0.01805 0.763671,-0.0055 1.527309,-0.0072 2.290968,-0.008 0.3649,0 0.729805,-0.0034 1.094745,-0.0074 0.512053,-0.005 1.02384,-0.0049 1.535935,-0.0034 0.223623,-0.004 0.223623,-0.004 0.451709,-0.0083 1.295225,0.01338 2.35826,0.457546 3.33227,1.339867 0.09391,0.122065 0.187782,0.244117 0.284523,0.369867 0.0976,0.122607 0.195234,0.245222 0.295778,0.371525 0.530008,0.811455 0.506269,1.70668 0.553742,2.648702 0.0088,0.16769 0.01754,0.335359 0.02662,0.508121 0.08929,1.894708 0.09665,3.788745 0.09249,5.685315 -0.0023,0.594716 0,1.189388 0.0023,1.784105 0.0017,1.944407 -0.02282,3.887989 -0.09427,5.831102 -0.0046,0.173312 -0.0092,0.346649 -0.01401,0.525227 -0.05455,1.229838 -0.298976,2.14803 -1.13079,3.084156 -0.136692,0.119048 -0.273383,0.238107 -0.414259,0.360762 -0.135661,0.121227 -0.271281,0.242485 -0.411087,0.367384 -0.788753,0.575442 -1.530324,0.795413 -2.490504,0.832424 -0.297792,0.01225 -0.297792,0.01225 -0.601635,0.02496 -0.321378,0.0097 -0.321378,0.0097 -0.649255,0.01974 -0.226101,0.0079 -0.452202,0.01567 -0.685176,0.02389 -3.717011,0.116661 -7.436393,0.09947 -11.153359,-0.01058 -0.220583,-0.0046 -0.441201,-0.0097 -0.668482,-0.01442 -1.503799,-0.05491 -2.57128,-0.231994 -3.741887,-1.26986 -1.035623,-1.240365 -1.320405,-2.228513 -1.322878,-3.835484 -0.0011,-0.160913 -0.0023,-0.321855 -0.0028,-0.487655 -0.0028,-0.53272 -0.0046,-1.065426 -0.0058,-1.598142 -0.0011,-0.370743 -0.0023,-0.741482 -0.0035,-1.1122 -0.0023,-0.777814 -0.0035,-1.555627 -0.004,-2.333437 -0.0011,-0.9946 -0.0062,-1.989126 -0.01212,-2.983703 -0.004,-0.766168 -0.0053,-1.532325 -0.0053,-2.29851 -5.79e-4,-0.366513 -0.0023,-0.733053 -0.0053,-1.099571 -0.0035,-0.514065 -0.0028,-1.028001 -0.0017,-1.542087 -0.0017,-0.150139 -0.0041,-0.300299 -0.0058,-0.454999 0.01251,-1.512375 0.508574,-2.677905 1.52366,-3.78138 1.134992,-0.815634 2.10106,-0.879688 3.458742,-0.884805 z"
       id="path2"
       style="fill:#15db95;fill-opacity:1;stroke-width:0.209063"
       inkscape:label="topleft_dot" />
    <path
       d="m 44.967429,62.04709 c 0.325995,0 0.651951,0 0.977907,-0.0023 0.680503,0 1.361041,0 2.041574,0.0023 0.867845,0.0023 1.735696,0 2.603506,-0.0023 0.672321,-0.0023 1.344667,0 2.016959,4.1e-5 0.319831,0 0.639621,-4.1e-5 0.959462,0 4.509401,-0.01109 4.509401,-0.01109 5.884599,1.359884 1.395787,1.780603 1.248268,3.990571 1.228107,6.14829 0,0.350141 0,0.700243 0,1.050385 0,0.729989 -0.0041,1.459884 -0.0098,2.189855 -0.0071,0.933536 -0.0088,1.86696 -0.0084,2.800537 -1.05e-4,0.72146 -0.0023,1.44291 -0.0053,2.164348 -0.0023,0.344234 -0.0023,0.688471 -0.0023,1.032687 0,0.481011 -0.0046,0.96188 -0.009,1.442825 -0.0023,0.409545 -0.0023,0.409545 -0.0046,0.827351 -0.09307,1.251236 -0.487093,2.715316 -1.411669,3.591561 -1.193378,0.924786 -2.267308,0.994844 -3.741707,0.993882 -0.156834,0 -0.313652,0.0021 -0.475234,0.0021 -0.516692,0.0021 -1.033325,0.0021 -1.549964,0.0021 -0.360546,0 -0.721039,0.0021 -1.081596,0.0021 -0.755142,0.0021 -1.510307,0.0021 -2.265502,0.0021 -0.965523,-2.8e-5 -1.931,0.0021 -2.896575,0.0074 -0.744484,0.0021 -1.489001,0.0021 -2.233554,0.0021 -0.355874,0 -0.711745,0.0021 -1.067579,0.0021 -0.498689,0.0021 -0.997375,0.0021 -1.496034,1.91e-4 -0.145608,0.0021 -0.291217,0.0021 -0.441225,0.0021 -1.509124,-0.01013 -2.663912,-0.327636 -3.766681,-1.37585 -1.617552,-1.862574 -1.389116,-4.322672 -1.391161,-6.666038 -5.49e-4,-0.278363 -0.0017,-0.556769 -0.0023,-0.84356 -0.0011,-0.587536 -0.0017,-1.175084 -0.0017,-1.762605 2.5e-5,-0.74583 -0.0028,-1.49162 -0.0065,-2.237429 -0.0028,-0.71999 -0.0028,-1.439995 -0.0028,-2.160016 -0.0017,-0.264195 -0.0028,-0.528404 -0.0046,-0.800627 0.01148,-4.546704 0.01148,-4.546704 1.29002,-6.23939 1.965186,-1.711009 4.439782,-1.546629 6.873555,-1.539073 z"
       id="path13"
       style="fill:#15db95;fill-opacity:1;stroke-width:0.209063"
       inkscape:label="bottomleft_dot" />
    <path
       d="m 77.453122,28.352968 c 0.160505,-0.0021 0.320993,-0.0028 0.486328,-0.0043 0.530199,-0.0043 1.060324,-0.0066 1.590517,-0.0088 0.181582,0 0.36318,-0.0021 0.550222,-0.0025 0.961134,-0.0048 1.922291,-0.0074 2.883449,-0.0094 0.990328,-0.0023 1.980493,-0.0095 2.970734,-0.01801 0.763654,-0.0057 1.527272,-0.0072 2.290945,-0.008 0.364928,0 0.729832,-0.0035 1.094738,-0.0074 0.512094,-0.0052 1.023876,-0.005 1.535975,-0.0035 0.223612,-0.004 0.223612,-0.004 0.451711,-0.0084 1.295213,0.01338 2.358246,0.457544 3.332263,1.339866 0.09392,0.122066 0.187777,0.24412 0.284506,0.369868 0.09762,0.122608 0.195251,0.245221 0.295789,0.371528 0.53002,0.811453 0.50628,1.706673 0.553724,2.648701 0.0088,0.167691 0.01754,0.33536 0.02664,0.508118 0.08929,1.894702 0.09665,3.788748 0.09249,5.685317 -0.0023,0.594715 0,1.189389 0.0023,1.784106 0.0017,1.944403 -0.02282,3.887984 -0.09428,5.831093 -0.0046,0.173316 -0.0092,0.346654 -0.01401,0.525231 -0.05454,1.229839 -0.298974,2.14803 -1.130783,3.084158 -0.136702,0.119034 -0.273434,0.238107 -0.414276,0.36076 -0.135655,0.121227 -0.271304,0.242484 -0.411075,0.367384 -0.788747,0.575447 -1.530324,0.795409 -2.490544,0.832424 -0.297759,0.01225 -0.297759,0.01225 -0.601607,0.02496 -0.321376,0.0098 -0.321376,0.0098 -0.649243,0.01974 -0.226096,0.0079 -0.452208,0.01567 -0.68517,0.02389 -3.717024,0.116661 -7.436404,0.09948 -11.153369,-0.01071 -0.220596,-0.0046 -0.441207,-0.0097 -0.668512,-0.01445 -1.503766,-0.05491 -2.571292,-0.231991 -3.741864,-1.269862 -1.035605,-1.240363 -1.320394,-2.228512 -1.322867,-3.835476 -0.0011,-0.160924 -0.0023,-0.321861 -0.0028,-0.487661 -0.0028,-0.532725 -0.0046,-1.065419 -0.0058,-1.598144 -0.0011,-0.370739 -0.0023,-0.741474 -0.0035,-1.112198 -0.0023,-0.777811 -0.0035,-1.555623 -0.004,-2.333441 -0.0011,-0.99459 -0.0062,-1.989123 -0.01212,-2.983698 -0.004,-0.766166 -0.0053,-1.532326 -0.0053,-2.298509 -5.78e-4,-0.366514 -0.0023,-0.733053 -0.0053,-1.099565 -0.0035,-0.514065 -0.0028,-1.028 -0.0017,-1.542092 -0.0017,-0.150137 -0.0041,-0.300296 -0.0058,-0.454997 0.01238,-1.51237 0.508562,-2.677902 1.523654,-3.781377 1.134957,-0.815638 2.101047,-0.879687 3.45873,-0.884808 z"
       id="path14"
       style="fill:#15db95;fill-opacity:1;stroke-width:0.209063"
       inkscape:label="mid"
       clip-path="none" />
  </g>
  <metadata
     id="metadata2">
  </metadata>
</svg>
